<?xml version="1.0" encoding="utf-8"?>
<!-- Generator: Adobe Illustrator 28.2.0, SVG Export Plug-In . SVG Version: 6.00 Build 0)  -->
<svg version="1.0" xmlns="http://www.w3.org/2000/svg" xmlns:xlink="http://www.w3.org/1999/xlink" x="0px" y="0px"
	 viewBox="0 0 256 256" enable-background="new 0 0 256 256" xml:space="preserve">
<g id="Layer_1">
	<rect x="22" y="75.9" fill="#0A1252" width="212" height="25.2"/>
	<rect x="22" y="181.1" fill="#0A1252" width="212" height="25.2"/>
	<rect x="22" y="94" fill="#0A1252" width="13" height="112.3"/>
	<rect x="221" y="94" fill="#0A1252" width="13" height="112.3"/>
	<polygon fill="#0A1252" points="218,75.9 107.8,75.9 123.8,49 202,49 	"/>
	<polygon fill="#0A1252" points="103.6,75.9 37.1,75.9 46.8,67.5 94,67.5 	"/>
	<path fill="#0A1252" d="M160.3,100.7c-22.5,0-40.8,18.3-40.8,40.8s18.3,40.8,40.8,40.8c22.5,0,40.8-18.3,40.8-40.8
		S182.8,100.7,160.3,100.7z M160.6,158.5c-9.2,0-16.7-7.5-16.7-16.7c0-9.2,7.5-16.7,16.7-16.7s16.7,7.5,16.7,16.7
		C177.3,151,169.8,158.5,160.6,158.5z"/>
</g>
<g id="Layer_2" display="none">
	<rect x="19.2" y="97.9" display="inline" fill="none" width="218.4" height="68.1"/>
	
		<text transform="matrix(1 0 0 1 19.2339 151.1392)" display="inline" fill="#FFFFFF" font-family="'Garet-Heavy'" font-size="72px">MhvS</text>
</g>
</svg>
