<?xml version="1.0" encoding="UTF-8"?>
<svg id="Rumikub" xmlns="http://www.w3.org/2000/svg" xmlns:xlink="http://www.w3.org/1999/xlink" viewBox="0 0 256 256">
  <defs>
    <style>
      .cls-1 {
        fill: #d8cec2;
        stroke-width: 0px;
      }

      .cls-2 {
        fill: #0a1252;
      }

      .cls-2, .cls-3, .cls-4, .cls-5 {
        stroke-miterlimit: 10;
        stroke-width: 2px;
      }

      .cls-2, .cls-4, .cls-5 {
        stroke: #000;
      }

      .cls-3 {
        stroke: #fff;
      }

      .cls-3, .cls-4 {
        fill: #c42028;
      }

      .cls-5 {
        fill: #563325;
      }
    </style>
    <image id="image" width="512" height="512" xlink:href="../../journal/rumikub-logo.png"/>
  </defs>
  <polygon class="cls-2" points="24.75 51.34 24.75 157.06 199.92 209.82 211.47 73.8 24.75 51.34"/>
  <polygon class="cls-4" points="37.53 46.18 24.75 51.34 211.47 73.8 231.25 65.97 37.53 46.18"/>
  <polygon class="cls-4" points="220.12 198.28 199.92 209.82 211.47 73.8 231.25 65.97 220.12 198.28"/>
  <path class="cls-3" d="M65.97,96.88s-1.65,2.47-3.3,2.47-3.3,0-4.95-.82-6.59-13.19-6.59-13.19c0,0,3.3-2.47,3.3-5.77s-4.95-8.24-4.95-8.24l-12.37-1.65v3.05l1.65.24.82,14.84h-.82v3.3l8.24.82v-2.37l-1.65-.1v-4.12l6.59,14.01s2.47,4.95,6.59,4.95,6.59-2.47,6.59-2.47l3.3-4.12-2.47-.82ZM47.35,78.99c-.36,1.53-2.11,1.19-2.11,1.19l-.28-5.46c.99-.09,2.16,1.81,2.16,1.81,0,0,.58.93.22,2.45Z"/>
  <path class="cls-3" d="M60.29,77.47l-5.86,1.28v2.73l.82-.26v9.89s.82,2.47,2.47,3.3,5.77-.82,5.77-.82v1.8l5.77.67v-2.47l-.82-.36v-14.48l-5.77.82v3.3h.82v7.42s-2.47,1.65-2.47-.82-.74-11.99-.74-11.99Z"/>
  <path class="cls-3" d="M155.23,90.66l-7.65,1.42v3.03l1.08-.29v10.99s1.08,2.75,3.23,3.66,7.53-.92,7.53-.92v2l7.53.74v-2.75l-1.08-.4v-16.08l-7.53.92v3.66h1.08v8.24s-3.23,1.83-3.23-.92-.96-13.32-.96-13.32Z"/>
  <path class="cls-3" d="M69.26,80.39v3.3h.98l-.16,9.89h-.82v2.47l7.42.82v-2.47h-.82v-9.07s.82-.82,1.65-.82,1.65,1.65,1.65,1.65v8.77l-1.65-.53v3.3l8.24,1.65v-3.3h-.89l.07-9.89s.82-.82,1.65,0,.82,1.65.82,1.65v8.24h-.82v4.12l7.42.82v-4.12h-.82v-10.72s0-3.3-3.3-4.12-4.95,1.65-4.95,1.65c0,0-2.47-3.3-4.12-3.3s-4.12,1.65-4.12,1.65v-2.47l-7.42.82Z"/>
  <path class="cls-3" d="M94.82,84.52v3.3h.98l-.16,9.89h-.82v2.47l7.42.82v-2.47h-.82v-9.07s.82-.82,1.65-.82,1.65,1.65,1.65,1.65v8.77l-1.65-.53v3.3l8.24,1.65v-3.3h-.89l.07-9.89s.82-.82,1.65,0,.82,1.65.82,1.65v8.24h-.82v4.12l7.42.82v-4.12h-.82v-10.72s0-3.3-3.3-4.12-4.95,1.65-4.95,1.65c0,0-2.47-3.3-4.12-3.3s-4.12,1.65-4.12,1.65v-2.47l-7.42.82Z"/>
  <polygon class="cls-3" points="128.82 87.45 120.37 88.64 120.37 90.81 121.63 90.81 121.63 101.83 120.37 101.5 120.37 105.12 128.21 106.19 128.82 103.04 127.79 102.65 128.82 87.45"/>
  <ellipse class="cls-3" cx="125.32" cy="83.28" rx="3.3" ry="3.71"/>
  <path class="cls-3" d="M146.73,106.19l-3.27-4.36s2.47-.82,3.3-4.95-3.3-6.59-3.3-6.59c0,0-3.75-.27-5.17.28-1.42.55-1.42-5.22-1.42-5.22l1.42-.47.23-3.65-9.07,2.47v2.75h.82v17.04s-1.44,0-1.44,0v2.96l8.86,1.99v-3.3h-1.65v-3.3l3.91,6.59,7.63.82.16-3.06h-1.01ZM140.16,98.53l-1.65-1.65c-.82-.82-3.3,1.76-3.3,1.76v-4.23s.82-.82,3.3,0,1.65,4.12,1.65,4.12Z"/>
  <path class="cls-3" d="M182.2,96.06c-3.3-.82-7.33.28-7.33.28l.74-6.05.82-.3v-3l-9.89,1.65v3.5h1.15l-1.15,19.58s10.72,3.3,14.84-.82,4.95-7.42,4.95-7.42c0,0-.82-6.59-4.12-7.42ZM176.43,110.02c-.82.77-2.47-1.59-2.47-1.59v-9.07s2.47.82,3.3,2.47.82,5.77.82,5.77c0,0-.82,1.65-1.65,2.42Z"/>
  <polygon class="cls-5" points="30.75 145.68 25.75 101.68 150.75 119.68 156.75 164.68 30.75 145.68"/>
  <polyline class="cls-5" points="153.75 140.68 28.22 123.4 30.75 145.68 156.75 164.68 153.62 141.18"/>
  <polygon class="cls-1" points="126.25 120.97 137.75 122.4 137.75 138.43 126.25 136.79 126.25 120.97"/>
  <polygon class="cls-1" points="109.25 118.97 120.75 120.4 120.75 136.43 109.25 134.79 109.25 118.97"/>
  <polygon class="cls-1" points="93.25 116.97 104.75 118.4 104.75 134.43 93.25 132.79 93.25 116.97"/>
  <polygon class="cls-1" points="76.25 113.97 87.75 115.4 87.75 131.43 76.25 129.79 76.25 113.97"/>
  <image width="417" height="730" transform="translate(171.11 107.25) rotate(4.06) scale(.03)" xlink:href="../../../assets/rumikub/2/rumikub-02.png"/>
  <image width="417" height="730" transform="translate(170.75 139.18) rotate(41.57) scale(.04)" xlink:href="../../../assets/rumikub/2/rumikub-07.png"/>
  <image width="417" height="730" transform="translate(167.23 158.7) rotate(-22.88) scale(.04)" xlink:href="../../../assets/rumikub/2/rumikub-09.png"/>
  <image width="417" height="730" transform="translate(186.3 108.18) rotate(5.31) scale(.03)" xlink:href="../../../assets/rumikub/1/rumikub-06.png"/>
  <image width="417" height="730" transform="translate(117.83 152.2) scale(.03)" xlink:href="../../../assets/rumikub/1/rumikub-08.png"/>
  <image width="417" height="730" transform="translate(109.25 149.34) scale(.03)" xlink:href="../../../assets/rumikub/1/rumikub-10.png"/>
  <use transform="translate(95.25 119.18) scale(.02)" xlink:href="#image"/>
  <use transform="translate(128.25 123.18) scale(.02)" xlink:href="#image"/>
</svg>