<?xml version="1.0" encoding="UTF-8"?>
<svg id="Telephone" xmlns="http://www.w3.org/2000/svg" viewBox="0 0 256 256">
  <defs>
    <style>
      .cls-1 {
        fill: #4b4b4b;
        stroke: #000;
        stroke-miterlimit: 10;
        stroke-width: 2px;
      }
    </style>
  </defs>
  <path class="cls-1" d="M74.5,192.03s-8-2-8-4,1-26.49,1-26.49c0,0,7,6.49,13,6.49h105s5,0,7-3,2,23,2,23c0,0-3.93,5-10.46,4s-109.54,0-109.54,0Z"/>
  <path class="cls-1" d="M67.5,161.54l4.5-6.01s6.95,7.02,12.48,6.01,96,.1,96,.1c0,0,7.52-.11,9.52-4.11s2.5,7.5,2.5,7.5c0,0-1.5,2.5-7,3s-105,0-105,0c0,0-7.5.52-13-6.49Z"/>
  <path class="cls-1" d="M85,128.53l-13,27s3.31,6.02,10.15,6.01,98.32.1,98.32.1c0,0,9.52-.11,9.52-4.11s-25-30-25-30l-80,1Z"/>
  <polygon class="cls-1" points="97 145.43 97 115.03 163 115.03 164 145.53 97 145.43"/>
  <g>
    <path class="cls-1" d="M56,101.53s.98,12.91,5.9,12c27.1-5,33.1-11,33.1-11,0,0,2-5-4.27-13-.16-.21-34.73,12-34.73,12Z"/>
    <path class="cls-1" d="M200,101.53s-.98,12.91-5.9,12c-27.1-5-33.1-11-33.1-11,0,0-2-5,4.27-13,.16-.21,34.73,12,34.73,12Z"/>
    <path class="cls-1" d="M200,101.53l-2-17c-13-17-70-20.69-70-20.69,0,0-57,3.69-70,20.69l-2,17,34.73-12s-1.73-6,8.27-8,29-.48,29-.48c0,0,19-1.52,29,.48s8.27,8,8.27,8l34.73,12Z"/>
  </g>
  <path class="cls-1" d="M94,72.53h8s6.18,16,13.09,16h31.29s7.62-3,9.62-13,9-2,9-2c0,0,0,29-33,26s-29.12-4-29.12-4c0,0-8.88-10-8.88-23Z"/>
  <ellipse class="cls-1" cx="130" cy="115.03" rx="33" ry="26.5"/>
  <circle class="cls-1" cx="132" cy="132.53" r="5"/>
  <ellipse class="cls-1" cx="121" cy="129.03" rx="5" ry="4.5"/>
  <circle class="cls-1" cx="144" cy="128.53" r="5"/>
  <ellipse class="cls-1" cx="131.5" cy="112.03" rx="15.5" ry="12.5"/>
  <ellipse class="cls-1" cx="131.5" cy="110.53" rx="6.5" ry="5"/>
  <ellipse class="cls-1" cx="111.5" cy="123.53" rx="4.5" ry="4"/>
  <ellipse class="cls-1" cx="106.5" cy="115.03" rx="4.5" ry="3.5"/>
  <ellipse class="cls-1" cx="106.5" cy="107.03" rx="4.5" ry="3.5"/>
  <ellipse class="cls-1" cx="111.5" cy="100.53" rx="4.5" ry="3"/>
  <ellipse class="cls-1" cx="120" cy="95.53" rx="4" ry="3"/>
  <ellipse class="cls-1" cx="139" cy="95.53" rx="4" ry="3"/>
  <ellipse class="cls-1" cx="129" cy="94.03" rx="4" ry="2.5"/>
  <path class="cls-1" d="M147,120.58l9,6.95s9-11,3.61-20.5c-6.12-10.79-12.61-12.23-12.61-12.23l-5.7,5.73s6.81,3.74,7.7,10c1,7-2,10.05-2,10.05Z"/>
</svg>