<?xml version="1.0" encoding="UTF-8"?>
<svg id="Airplane" xmlns="http://www.w3.org/2000/svg" viewBox="0 0 256 256">
  <defs>
    <style>
      .cls-1 {
        fill: #94b2dd;
      }

      .cls-1, .cls-2 {
        stroke: #000;
        stroke-miterlimit: 10;
        stroke-width: 2px;
      }

      .cls-2 {
        fill: #fff;
      }
    </style>
  </defs>
  <path class="cls-1" d="M74.62,142.85s25.9,4.6,43.03-1.01c17.13-5.61,91.53-21.89,91.53-21.89,0,0,12.16-6.72,12.23-9.72s.14-6.06.14-6.06l-146.93,38.68Z"/>
  <polygon class="cls-1" points="73.99 126.83 54.88 131.39 47.33 155.23 60.39 152.76 73.99 126.83"/>
  <path class="cls-2" d="M75.44,118.73l-23.45-19.05-17.55,5.05s30.69,34.62,35.84,37.31,67.16-15.31,67.16-15.31l-28.5,49.95s25.5-8.12,28.5-11.53c3-3.42,32-47.42,32-47.42l52-14s0-4-12-7-12-10-21-8-113,30-113,30Z"/>
  <path class="cls-2" d="M112.32,79.32l-31.88,5.09,39.61,22.35,29.35-7.83-22.58-16.12s-6.12-3.39-14.5-3.48Z"/>
  <path class="cls-1" d="M195.94,91.23l-8,2,3,8,16-4s-1.65-2.38-6.32-4.19l-4.68-1.81Z"/>
  <circle class="cls-1" cx="165.44" cy="103.73" r="3"/>
  <circle class="cls-1" cx="154.44" cy="106.73" r="3"/>
  <circle class="cls-1" cx="142.44" cy="109.73" r="3"/>
  <circle class="cls-1" cx="118.44" cy="117.73" r="3"/>
  <circle class="cls-1" cx="107.44" cy="120.73" r="3"/>
  <circle class="cls-1" cx="95.44" cy="123.73" r="3"/>
  <circle class="cls-1" cx="130.44" cy="113.73" r="3"/>
</svg>