<?xml version="1.0" encoding="UTF-8"?>
<svg id="Urban_Design" data-name="Urban Design" xmlns="http://www.w3.org/2000/svg" viewBox="0 0 256 256">
  <defs>
    <style>
      .cls-1 {
        fill: #4b4b4b;
      }

      .cls-1, .cls-2, .cls-3, .cls-4, .cls-5, .cls-6, .cls-7, .cls-8 {
        stroke: #000;
        stroke-miterlimit: 10;
        stroke-width: 2px;
      }

      .cls-2 {
        fill: #94b2dd;
      }

      .cls-3 {
        fill: #a8a8a8;
      }

      .cls-4 {
        fill: #666;
      }

      .cls-5 {
        fill: #f4d5b1;
      }

      .cls-6 {
        fill: #5d6220;
      }

      .cls-7 {
        fill: #9d6322;
      }

      .cls-8 {
        fill: #fff;
      }
    </style>
  </defs>
  <rect class="cls-2" x="51.5" y="53.5" width="153" height="117"/>
  <rect class="cls-5" x="134.5" y="91.5" width="66" height="78"/>
  <path class="cls-6" d="M117.5,119.86c.64-1.67,1-3.47,1-5.36,0-8.28-6.72-15-15-15s-15,6.72-15,15c0,.87.09,1.73.23,2.56-5.34,1.62-9.23,6.57-9.23,12.44,0,7.18,5.82,13,13,13,4.07,0,7.7-1.87,10.09-4.8,2.01,4.59,6.58,7.8,11.91,7.8,7.18,0,13-5.82,13-13,0-6.15-4.27-11.28-10-12.64Z"/>
  <path class="cls-7" d="M94.4,169.5s7-14,6-22-5-16-5-16l5.1,2.06v-4.07l2.9,3.01,5.23-3.01-1.23,5.01,5-1s-5,4-5,15,4.12,21,4.12,21h-17.12Z"/>
  <rect class="cls-4" x="64.5" y="124.5" width="7" height="45"/>
  <rect class="cls-4" x="60.5" y="126.5" width="15" height="3" rx="1.5" ry="1.5"/>
  <circle class="cls-8" cx="68.5" cy="115.5" r="9.5"/>
  <polygon class="cls-1" points="134.5 91.5 150.39 73.5 183.39 73.5 200.5 91.5 134.5 91.5"/>
  <rect class="cls-1" x="179.5" y="141.08" width="15" height="28.42"/>
  <rect class="cls-2" x="141.5" y="140.5" width="25" height="18"/>
  <rect class="cls-2" x="153.5" y="107.5" width="12" height="18"/>
  <rect class="cls-2" x="175.5" y="107.5" width="12" height="18"/>
  <rect class="cls-3" x="51.5" y="169.5" width="153" height="11"/>
  <rect class="cls-1" x="51.5" y="180.5" width="153" height="22"/>
</svg>