<?xml version="1.0" encoding="UTF-8"?>
<svg id="camera" xmlns="http://www.w3.org/2000/svg" viewBox="0 0 256 256">
  <defs>
    <style>
      .cls-1 {
        fill: #0f0a0e;
      }

      .cls-1, .cls-2, .cls-3, .cls-4, .cls-5 {
        stroke: #000;
        stroke-miterlimit: 10;
        stroke-width: 2px;
      }

      .cls-2 {
        fill: #5d6220;
      }

      .cls-3 {
        fill: #8f9137;
      }

      .cls-4 {
        fill: #e2c752;
      }

      .cls-5 {
        fill: #b7b1b1;
      }
    </style>
  </defs>
  <path class="cls-2" d="M66.62,178.7h-3.98c-12.5,0-22.64-14.43-22.64-32.23v-39.88c0-17.8,10.14-32.23,22.64-32.23h9.45c3.37,0,6.1,3.89,6.1,8.68l5.16,79.49c0,9.1-10.34,16.17-16.73,16.17Z"/>
  <path class="cls-2" d="M188.97,181.64h4.04c12.7,0,22.99-14.43,22.99-32.23v-39.88c0-17.8-10.29-32.23-22.99-32.23h-9.6c-3.42,0-6.19,3.89-6.19,8.68l-5.24,79.49c0,9.1,10.5,16.17,16.99,16.17Z"/>
  <path class="cls-4" d="M164.78,174.29h-74.36c-3.79,0-6.89-9.18-6.89-13.23l-6.89-74.98c0-4.04,3.07-7.32,6.86-7.32h90.94c3.79,0,6.86,3.28,6.86,7.32l-8.26,76.45c0,4.04-4.47,11.76-8.26,11.76Z"/>
  <path class="cls-2" d="M166.54,103.75c-5.37-2.94-6.71,1.47-15.45,2.94-8.74,1.47-23.46,1.27-23.46,1.27,0,0-14.73.2-23.46-1.27-8.74-1.47-10.08-5.88-15.45-2.94-5.37,2.94-6.71,8.82-6.71,8.82l6.71,49.96s2.68,5.88,9.39,5.88h59.04c6.71,0,9.39-5.88,9.39-5.88l6.71-49.96s-1.34-5.88-6.71-8.82Z"/>
  <path class="cls-2" d="M127.63,104.04s-25.49,1.18-36.23-4.69-8.05-8.58-8.05-8.58c0,0,2.61-6.12,14.76-6.12,6.71,0,29.52-.24,29.52-.24v19.63Z"/>
  <path class="cls-2" d="M127.63,104.04s25.49,1.18,36.23-4.69c10.73-5.88,8.05-8.58,8.05-8.58,0,0-2.61-6.12-14.76-6.12-6.71,0-29.52-.24-29.52-.24v19.63Z"/>
  <ellipse class="cls-4" cx="126.29" cy="136.08" rx="17.44" ry="19.1"/>
  <ellipse class="cls-3" cx="126.29" cy="136.08" rx="13.42" ry="14.7"/>
  <ellipse class="cls-1" cx="126.29" cy="136.08" rx="10.73" ry="11.76"/>
  <path class="cls-1" d="M106.16,102.28s-9.39-1.47-12.08-2.94-2.68-11.76-2.68-11.76c0,0,2.68-1.47,8.05-1.47h10.86v16.65l-4.15-.48Z"/>
  <path class="cls-1" d="M147.88,102.28s9.39-1.47,12.08-2.94,2.68-11.76,2.68-11.76c0,0-2.68-1.47-8.05-1.47h-10.86s0,16.65,0,16.65l4.15-.48Z"/>
  <rect class="cls-5" x="112.87" y="86.12" width="28.18" height="16.17"/>
</svg>