<?xml version="1.0" encoding="UTF-8"?>
<svg id="Putt-Putt" xmlns="http://www.w3.org/2000/svg" viewBox="0 0 256 256">
  <defs>
    <style>
      .cls-1 {
        fill: #643893;
      }

      .cls-1, .cls-2, .cls-3, .cls-4, .cls-5, .cls-6, .cls-7 {
        stroke: #000;
        stroke-miterlimit: 10;
        stroke-width: 2px;
      }

      .cls-2 {
        fill: #d33b33;
      }

      .cls-8, .cls-9, .cls-10, .cls-11, .cls-12 {
        stroke-width: 0px;
      }

      .cls-3 {
        fill: #694737;
      }

      .cls-9, .cls-6 {
        fill: #221e20;
      }

      .cls-10, .cls-7 {
        fill: #fff;
      }

      .cls-4 {
        fill: none;
      }

      .cls-5 {
        fill: #9d6322;
      }

      .cls-11 {
        fill: #211d1f;
      }

      .cls-12 {
        fill: #e19177;
      }
    </style>
  </defs>
  <ellipse class="cls-7" cx="179.11" cy="164.41" rx="23.08" ry="30.5" transform="translate(-28.64 38.12) rotate(-11.26)"/>
  <path class="cls-7" d="M154,165.3s-11-1-18-3-15-7-15-7c0,0-7-1-7,3s1,13,1,13c0,0,2,9,15,11s19,5,26,4,31-10,31-10c0,0,13-11,15-15s6-13,6-16-1-11-1-11c0,0-14,22-26,27s-27,4-27,4Z"/>
  <path class="cls-1" d="M215,106.3s-.28,16-3.14,21-9.47,13.61-9.47,13.61c0,0-11.06,14.31-16.22,17.35s-13.13,6.71-22.65,6.88-27.52-2.83-27.52-2.83l-15-7-5.88.83-.12,15.17s-16,16-24,17-30.69,2-34.84,0-14.16-17-14.16-17c0,0,7-14,14-16s26-11,32-16,16-25.36,26-31.68,48-16.32,50-16.32,35-6,40-3,11,18,11,18Z"/>
  <path class="cls-7" d="M186.12,63.8s-5,0-12,5-13,24-13,24c0,0-4,10,1,15,5,5,13,13,20,13s15,0,17-7,4-22,4-22c0,0-2-18-4-20s-7-8-13-8Z"/>
  <path class="cls-7" d="M155.04,67.42s-5,0-12,5-13,24-13,24c0,0-4,10,1,15s13,13,20,13,15,0,17-7,4-22,4-22c0,0-2-18-4-20s-7-8-13-8Z"/>
  <ellipse class="cls-9" cx="154.62" cy="96.3" rx="9.5" ry="12.5"/>
  <ellipse class="cls-9" cx="188.62" cy="91.3" rx="9.5" ry="12.5"/>
  <path class="cls-9" d="M167.12,53.8l-1-16s-2-2-5-2-9,1-13,6-13,12-13,15v5.76s9-5.76,13-5.76,19-3,19-3Z"/>
  <path class="cls-9" d="M179.12,53.8l1-16s2-2,5-2,9,1,13,6c4,5,13,12,13,15v5.76s-9-5.76-13-5.76-19-3-19-3Z"/>
  <ellipse class="cls-7" cx="110.62" cy="182.3" rx="18.5" ry="30.5" transform="translate(-33.45 25.1) rotate(-11.26)"/>
  <ellipse class="cls-7" cx="74.9" cy="196.79" rx="14.37" ry="23.69" transform="translate(-36.97 18.4) rotate(-11.26)"/>
  <ellipse class="cls-7" cx="74.07" cy="197.22" rx="3.45" ry="5.69" transform="translate(-37.07 18.25) rotate(-11.26)"/>
  <ellipse class="cls-7" cx="110.17" cy="181.2" rx="5.12" ry="8.44" transform="translate(-33.25 24.99) rotate(-11.26)"/>
  <path class="cls-6" d="M172.04,168.37s-25.42-3.07-33.42-14.07-8.65-16.13-8.65-16.13c0,0,9.65.93,34.15.03s31-4.94,31-4.94c0,0-10.66,37.17-23.08,35.11Z"/>
  <path class="cls-7" d="M195.27,132.77s-16.5,4.79-28,4.92-37.15,0-37.15,0c0,0,3.62,14.3,29.63,12.21s35.51-17.13,35.51-17.13Z"/>
  <path class="cls-7" d="M67.12,156.8l10-5s2.33-1,3.66,2.5,1.34,7.5,1.34,7.5c0,0-10,4-12,4s-4-2-4-2c0,0-2-5,1-7Z"/>
  <path class="cls-7" d="M128.14,99.06s-14.8-7.77-20.2-3.13-12.08,17.19-11.3,21.11l1.38,6.95s19.41-15.16,24.12-17.12,6.3-8.37,6-7.81Z"/>
  <path class="cls-1" d="M65.47,150.86s-2.35-4.05-13.35-4.05-9.84,3.31-9.84,3.31c0,0-.91,6.56-.04,8.63s2.2,7.07,2.2,7.07c0,0,6.67-8,10.67-9s10.35-5.95,10.35-5.95Z"/>
  <path class="cls-5" d="M86.62,139.3s-2-5-6-2-9,10-9,10c0,0,6.12-1.46,9.06-3.23s5.94-4.77,5.94-4.77Z"/>
  <path class="cls-5" d="M72.62,143.3s-4-1-7,1-4,3-4,3c0,0,1,0,3,2l2,2,4-3,3-4-1-1Z"/>
  <path class="cls-5" d="M67.86,129.05s-8.23,1.25-9.23.25-2-4-2-4c0,0-5.92-14.16-4.46-16.08s1.46-4.92,6.46-7.92,7-3,10-3,8,11,8,11c0,0,2-1,5-1s5,2,5,2c0,0,0,7-2,9s-1,5-1,5c0,0,2,4,3,4s5-1,6,0l2,2s-3.03,5.49-4.01,6.24-3.99,2.76-3.99,2.76c0,0-2-4-4-3s-9,8-9,8l-1-1,3-6-7.77-8.25Z"/>
  <path class="cls-3" d="M51.62,109.3s-7.3-2-8.15,0-4.09,5-1.47,10,8.24,10.96,9.93,10.98,2.69.02,2.69.02c0,0,1-4,1-5v-2.49l-4-13.51Z"/>
  <path class="cls-3" d="M65.21,98.5s.42-3.2,4.42-4.2,6-1,7-1,7,6,7,6l1,4s-4,0-6,1-3.71,1.9-3.71,1.9c0,0-3.78-7.9-5.53-7.9s-4.17.2-4.17.2Z"/>
  <path class="cls-6" d="M82.62,121.3s-3,3-7,4-12,1-12,1c0,0,7,0,8,1s5,2,6,2,2-2,1-3l-1-1,5-4Z"/>
  <path class="cls-12" d="M78.62,126.3s-2,1-3,2,2.85.5,2.85.5c0,0,1.15-1.5.15-2.5Z"/>
  <path class="cls-2" d="M83.62,123.8l1,3s1,7-3,9-9,2-9,2c0,0-4-1-4-3s1-4,1-4l2,2s-1,2,0,2,7,1,9-1,2-5,2-7-1-3-1-3h2Z"/>
  <ellipse class="cls-11" cx="79.62" cy="115.3" rx="6" ry="4" transform="translate(-50.49 63.29) rotate(-33.58)"/>
  <ellipse class="cls-10" cx="77.85" cy="115.31" rx="2.48" ry="1.65" transform="translate(-50.79 62.31) rotate(-33.58)"/>
  <path class="cls-7" d="M62.12,118.8s2,1,3,0l3-3s-4-9.51-4.5-9.76-2.34,2.18-2.34,2.18c0,0-2.16,2.58-1.16,4.58s2,6,2,6Z"/>
  <path class="cls-7" d="M74.12,110.8l-3-6c-1-2,0-4,0-4,0,0,1-1,2,0s4,7,4,7c0,0,0,2-3,3Z"/>
  <path class="cls-8" d="M64.62,109.3s-2,2-1,4,2,3,3,3h2s-2-6-4-7Z"/>
  <path class="cls-8" d="M74.36,110.48s1.17-2.93.68-4.21-3.45-1.75-3.45-1.75c0,0-.32,1.97.51,3.12s2.26,2.84,2.26,2.84Z"/>
  <path class="cls-4" d="M61.12,102.8s-2,3-2,4v2"/>
  <path class="cls-4" d="M68.62,100.36s1.11-1.27,2.06-1.67"/>
  <path class="cls-4" d="M76.62,110.3s-2,1-3,2-2.94,3.5-2.94,3.5"/>
  <path class="cls-9" d="M123.12,137.8s5,2.11,7-.95,1.8-4.09,1.8-4.09l-8.8,5.03Z"/>
  <path class="cls-8" d="M61.91,127.65s2.32-.08,2.55-1.62-.03-1.91-.03-1.91l-2.52,3.53Z"/>
  <path class="cls-9" d="M195.37,125.24s-2.11,5,.95,7,4.09,1.8,4.09,1.8l-5.03-8.8Z"/>
</svg>