<?xml version="1.0" encoding="utf-8"?>
<!-- Generator: Adobe Illustrator 28.2.0, SVG Export Plug-In . SVG Version: 6.00 Build 0)  -->
<svg version="1.0" id="Layer_2" xmlns="http://www.w3.org/2000/svg" xmlns:xlink="http://www.w3.org/1999/xlink" x="0px" y="0px"
	 viewBox="0 0 512 512" enable-background="new 0 0 512 512" xml:space="preserve">
<polygon fill="#C1B67A" stroke="#000000" stroke-miterlimit="10" points="57.6,301.9 46.5,308.8 344.3,337 351.9,327.6 "/>
<polygon fill="#C1B67A" stroke="#000000" stroke-miterlimit="10" points="69.5,408.3 95.2,411.1 188.4,276.1 157.8,273.8 "/>
<polygon fill="#C1B67A" stroke="#000000" stroke-miterlimit="10" points="312.3,423.4 285.1,420.1 201.3,278.2 231.4,281.2 "/>
<polygon fill="#C1B67A" stroke="#000000" stroke-miterlimit="10" points="317,411.1 312.3,423.4 231.6,281 245.5,282.4 "/>
<polygon fill="#C1B67A" stroke="#000000" stroke-miterlimit="10" points="450.9,259.9 430.5,257.4 367.6,150.8 390.2,153.1 "/>
<polygon fill="#C1B67A" stroke="#000000" stroke-miterlimit="10" points="454.5,250.6 450.9,259.9 390.3,152.9 400.8,154 "/>
<polygon fill="#C1B67A" stroke="#000000" stroke-miterlimit="10" points="267.7,320.4 245.7,282.7 231.4,281.2 253.1,319.4 "/>
<path fill="#C1B67A" stroke="#000000" stroke-miterlimit="10" d="M344.3,337"/>
<polygon fill="#C1B67A" stroke="#000000" stroke-miterlimit="10" points="46.5,308.8 103.5,268.4 157.8,273.8 119.5,315.8 "/>
<polygon fill="#C1B67A" stroke="#000000" stroke-miterlimit="10" points="46.5,308.8 46.5,326.2 344.3,354 344.3,337 "/>
<polygon fill="#C1B67A" stroke="#000000" stroke-miterlimit="10" points="201.9,166.5 201.9,181.9 465.3,206.5 466,194.7 "/>
<polygon fill="#C1B67A" stroke="#000000" stroke-miterlimit="10" points="344.3,354 466,207.9 466,194.7 344.3,337 "/>
<polygon fill="#C1B67A" stroke="#000000" stroke-miterlimit="10" points="266.4,318.2 415.9,186.4 466,194.7 344.3,337 258.5,328.9 
	"/>
<polygon fill="#C1B67A" stroke="#000000" stroke-miterlimit="10" points="62.5,244.1 62.5,264.1 314.3,289.3 314.3,269.5 "/>
<polygon fill="#C1B67A" stroke="#000000" stroke-miterlimit="10" points="314.3,289.3 436.1,140.5 436.1,127.2 314.3,269.5 "/>
<polygon fill="#C1B67A" stroke="#000000" stroke-miterlimit="10" points="62.5,244.1 251,117.5 435.4,127.2 314.3,269.5 "/>
</svg>
