<svg width="461" height="92" viewBox="0 0 461 92" fill="none" xmlns="http://www.w3.org/2000/svg">
<rect width="461" height="92" fill="#1E1E1E"/>
<g id="Frame 1">
<rect width="461" height="92" fill="white"/>


<g id="Miel">
<path id="Vector 1" d="M22.1105 64.8409C24.3281 58.5575 25.3953 52.2933 26.6651 45.7392C28.6458 35.5153 30.3284 25.1344 32.7931 15.0164C32.8605 14.7394 33.2623 11.6463 33.2899 13.1393C33.3294 15.2704 33.8257 17.2927 34.1732 19.3777C34.5142 21.4233 34.2781 23.4374 35.3878 25.2573C36.3181 26.7829 36.7581 28.6228 37.3201 30.3088C37.9254 32.1247 39.4464 30.7946 40.1908 29.8671C41.9755 27.6436 43.0059 24.7577 43.9863 22.1105C45.1001 19.1033 45.9408 16.294 46.7053 13.2359C47.0758 11.7537 47.423 16.2351 47.423 17.7629C47.423 21.1299 47.0828 24.4723 47.2297 27.852C47.424 32.3203 48.1253 37.0086 48.9412 41.4054C49.5805 44.8507 49.8143 48.7742 50.9838 52.088C52.0058 54.9836 53.4929 58.1584 55.8973 60.162C59.6337 63.2757 62.2038 60.1263 64.8408 57.3879" stroke="white" stroke-width="3" stroke-linecap="round"/>
<path id="Vector 2" d="M60.8659 32.0478C60.9076 33.1929 61.1211 34.2608 61.3076 35.3878C61.6361 37.3723 61.5677 39.3903 61.8735 41.3778C62.1557 43.2125 62.7577 45.4555 63.7229 47.0641C64.0735 47.6485 64.3396 48.4754 65.0893 48.6375C65.8316 48.798 67.5802 48.4378 68.0705 47.9474" stroke="white" stroke-width="3" stroke-linecap="round"/>
<path id="Vector 3" d="M60.1206 26.0854C60.1206 25.1535 60.3985 23.8936 59.8722 23.1042" stroke="white" stroke-width="3" stroke-linecap="round"/>
<path id="Vector 4" d="M76.0508 37.4121C78.8655 35.5356 81.9518 34.2741 84.1942 31.6537C84.8228 30.9192 86.6393 29.5754 84.9268 29.1153C82.9154 28.575 80.751 28.1515 78.7255 28.8598C77.9252 29.1396 77.2439 29.6383 76.4767 29.9671C75.9848 30.1779 74.7514 30.8638 74.6793 31.4408C74.5891 32.1624 74.6708 32.9385 74.6708 33.664C74.6708 34.3574 74.5345 35.2158 74.8327 35.8618C75.594 37.5113 76.5494 39.1073 77.3966 40.7171C78.4717 42.7598 80.9988 43.2385 83.0953 43.2385C84.2951 43.2385 85.4383 43.0906 86.6134 42.8467C88.9737 42.3568 90.6219 39.8708 92.1502 38.1787" stroke="white" stroke-width="3" stroke-linecap="round"/>
<path id="Vector 5" d="M95.9834 20.086C95.9834 21.3876 96.4285 22.7795 96.699 24.0384C97.1723 26.2417 97.7368 28.5159 98.0363 30.7508C98.2555 32.3861 98.5452 34.0226 98.7433 35.6573C98.896 36.917 98.8751 38.1827 99.05 39.4394C99.1791 40.367 99.2071 41.3322 99.3907 42.2504C99.5824 43.2087 100.987 43.7248 101.716 44.1415C104.126 45.5184 107.113 43.8518 109.63 43.8518" stroke="white" stroke-width="3" stroke-linecap="round"/>
</g>

<g id="van">
<path id="Vector 6" d="M101.963 54.1248C104.557 57.4593 107.454 60.5309 109.493 64.2615C110.603 66.2923 111.636 68.375 112.688 70.4372C113.221 71.4838 113.56 73.8587 114.451 71.6468C115.197 69.7943 114.723 67.7116 114.817 65.7693C115.041 61.1319 117.359 56.8746 118.659 52.4893C119.005 51.324 119.237 49.4611 120.03 48.4347C120.493 47.8363 121.348 46.8924 122.049 46.6118" stroke="white" stroke-width="3" stroke-linecap="round"/>
<path id="Vector 8" d="M146.275 56.4248C146.351 57.1873 146.673 57.9674 146.829 58.7162C147.323 61.0967 147.716 63.5021 148.021 65.9141C148.285 67.9934 148.115 70.166 148.115 72.2601C148.115 72.5015 148.115 72.7428 148.115 72.9842C148.115 73.0807 148.115 73.3704 148.115 73.2738C148.115 72.8475 148.129 72.4219 148.149 71.9961C148.203 70.8581 148.312 69.7123 148.268 68.5718C148.251 68.1095 147.993 67.6737 147.928 67.2088C147.57 64.6752 147.31 62.425 147.894 59.9258C148.146 58.8455 149.088 57.8857 149.18 56.8251C149.263 55.8733 150.082 55.4096 150.866 54.9681C152.592 53.9973 154.503 53.3802 156.548 53.8523C157.466 54.064 158.295 55.3019 158.754 56.0414C159.527 57.2848 159.675 58.3669 159.776 59.7809C159.861 60.9636 160.162 62.1494 160.262 63.3416C160.367 64.5909 160.358 65.8208 160.381 67.0725C160.397 67.9141 160.76 68.5798 161.046 69.3554C161.315 70.0861 161.3 70.8319 161.489 71.5702C161.76 72.6342 162.917 73.067 163.601 73.7508" stroke="white" stroke-width="3" stroke-linecap="round"/>
<path id="Vector 20" d="M135.793 63.3367C133.473 62.9671 128.534 61.6816 127.006 64.357C125.944 66.2144 127.087 67.9764 128.579 69.2571C129.847 70.3452 130.685 70.5792 132.272 70.5792C133.598 70.5792 134.734 69.3028 135.412 68.2369C136.113 67.1361 136.877 65.929 137.057 64.6013C137.102 64.269 137.086 63.9299 137.086 63.5954C137.086 63.0365 137.203 64.2792 137.208 64.3857C137.308 66.5864 137.086 68.7917 137.086 70.9959C137.086 71.0731 137.039 71.6022 137.172 71.5779C137.894 71.4466 137.862 69.1155 137.833 68.5961C137.723 66.6358 137.603 64.6934 137.603 62.726C137.603 61.7632 137.603 60.8004 137.603 59.8376C137.603 58.4674 136.871 57.4024 135.951 56.4104C134.334 54.6677 131.361 54.5656 129.183 54.8728C127.821 55.0648 126.568 55.5769 125.188 55.5769" stroke="white" stroke-width="3" stroke-linecap="round"/>
</g>

<g id="Sleeuwen">
<path id="Vector 9" d="M202.444 25.7362C198.126 26.5828 193.634 26.1959 189.34 27.1997C187.085 27.7269 184.689 28.6487 183.486 30.7123C182.624 32.1885 181.364 35.8769 183.092 37.2082C184.793 38.5196 186.869 39.0591 188.98 39.1109C191.99 39.1847 195.001 39.3971 198.009 39.5612C201.654 39.76 207.76 39.0822 210.145 42.5671C210.704 43.385 211.578 44.1719 211.721 45.1903C211.904 46.4908 211.839 48.011 211.642 49.2995C211.096 52.8793 208.204 54.8843 205.439 56.8312C202.338 59.015 199.868 61.5735 196.23 62.9444C193.246 64.0685 190.288 64.3956 187.133 64.543C184.36 64.6726 181.401 64.746 178.69 64.0364C176.25 63.3978 175.097 60.6108 174.074 58.565" stroke="white" stroke-width="3" stroke-linecap="round"/>
<path id="Vector 10" d="M213.995 27.3573C214.732 31.3706 215.225 35.4081 216.089 39.4036C216.779 42.5931 217.824 45.6732 218.453 48.8829C218.903 51.1783 219.198 53.7014 221.898 53.7014" stroke="white" stroke-width="3" stroke-linecap="round"/>
<path id="Vector 11" d="M229.194 44.9876C232.918 43.9234 236.901 43.1735 240.339 41.34C241.598 40.6688 243.591 38.6356 243.154 36.9943C242.863 35.9051 240.195 35.5863 239.394 35.4407C237.881 35.1656 236.183 35.1207 234.676 35.4632C232.776 35.8952 230.734 36.2155 229.351 37.6473C228.074 38.9705 228.777 40.0912 229.149 41.6102C229.59 43.4175 230.359 45.183 230.905 46.9691C231.424 48.6684 233.329 50.088 234.958 50.5492C236.97 51.1186 238.873 51.067 240.947 51.067" stroke="white" stroke-width="3" stroke-linecap="round"/>
<path id="Vector 12" d="M248.575 44.9876C252.3 43.9234 256.283 43.1735 259.721 41.34C260.98 40.6688 262.973 38.6356 262.536 36.9943C262.245 35.9051 259.576 35.5863 258.775 35.4407C257.263 35.1656 255.565 35.1207 254.058 35.4632C252.157 35.8952 250.115 36.2155 248.733 37.6473C247.455 38.9705 248.159 40.0912 248.53 41.6102C248.972 43.4175 249.741 45.183 250.287 46.9691C250.806 48.6684 252.71 50.088 254.34 50.5492C256.352 51.1186 258.255 51.067 260.329 51.067" stroke="white" stroke-width="3" stroke-linecap="round"/>
<path id="Vector 15" d="M318.575 44.9876C322.3 43.9234 326.283 43.1735 329.721 41.34C330.98 40.6688 332.973 38.6356 332.536 36.9943C332.245 35.9051 329.576 35.5863 328.775 35.4407C327.263 35.1656 325.565 35.1207 324.058 35.4632C322.157 35.8952 320.115 36.2155 318.733 37.6473C317.455 38.9705 318.159 40.0912 318.53 41.6102C318.972 43.4175 319.741 45.183 320.287 46.9691C320.806 48.6684 322.71 50.088 324.34 50.5492C326.352 51.1186 328.255 51.067 330.329 51.067" stroke="white" stroke-width="3" stroke-linecap="round"/>
<path id="Vector 13" d="M268.305 36.0712C268.305 39.8766 268.215 43.6897 268.507 47.4869C268.601 48.712 268.267 51.1977 268.912 52.3279C269.297 53.0011 269.125 53.0935 270.061 53.0935C271.193 53.0935 272.654 53.3307 273.753 52.9809C275.761 52.3421 277.603 50.7793 278.73 49.0631C279.652 47.6582 279.674 45.8284 280.148 44.2446C280.477 43.1464 280.869 42.4615 280.869 41.34C280.869 40.2924 280.839 39.2979 280.576 38.2778C280.487 37.9321 280.261 35.4506 280.261 36.6791C280.261 38.6381 281.118 40.4513 280.756 42.4658C280.449 44.1789 280.002 46.7648 280.587 48.4551C281.252 50.3763 282.124 51.0964 283.706 52.2829" stroke="white" stroke-width="3" stroke-linecap="round"/>
<path id="Vector 14" d="M289.988 33.842C291.414 36.139 292.57 38.6825 293.433 41.2386C294.146 43.3533 295.077 45.3804 295.662 47.532C296.044 48.935 296.472 49.9784 296.472 51.4498C296.472 51.8648 296.296 52.888 297.013 52.4293C298.53 51.4583 298.589 49.2539 299.152 47.7121C299.558 46.5979 299.864 45.4752 300.255 44.3346C300.879 42.5184 301.098 40.6212 301.73 38.8294C301.805 38.6157 301.828 38.2043 301.944 38.0301C301.956 38.0113 302.603 39.6491 302.619 39.7413C302.979 41.702 302.912 43.5847 303.655 45.483C304.28 47.0805 305.056 48.57 305.772 50.1213C306.073 50.7736 307.2 53.9579 308.226 53.7014C308.634 53.5995 308.952 52.6346 309.082 52.3505C309.664 51.0763 310.138 49.739 310.23 48.3313C310.48 44.5152 311.135 40.9421 312.076 37.2195C312.614 35.095 313.436 33.3418 314.711 31.5679C315.86 29.9681 317.479 28.5076 318.358 26.7494" stroke="white" stroke-width="3" stroke-linecap="round"/>
<path id="Vector 16" d="M337.946 37.5202C337.611 41.4209 337.622 45.7165 336.508 49.4691C336.138 50.7144 335.832 51.7385 335.832 53.0509C335.832 55.12 336.048 48.9174 336.229 46.8562C336.539 43.3207 337.591 39.7463 337.682 36.1991C337.709 35.129 338.097 35.1794 338.475 36.1991C339.121 37.9444 339.664 39.6786 340.207 41.4543C340.94 43.8527 342.584 46.0003 343.48 48.3535C343.796 49.1831 344.694 53.3118 345.873 53.3738C348.491 53.5116 347.576 45.2495 347.781 43.4066C348.265 39.0499 349.624 34.8347 351.113 30.7384C351.798 28.8568 352.355 27.0744 353.8 25.63" stroke="white" stroke-width="3" stroke-linecap="round"/>
</g>

<g id="line">
<path id="Vector 17" d="M397.133 46.2397C394.019 44.5413 391.165 42.8305 387.679 41.88C383.867 40.8401 380.047 40.9552 376.142 40.9552C372.836 40.9552 369.085 41.5528 366.629 44.0085C363.822 46.8162 361.757 50.2295 358.849 52.9628C357.173 54.5383 355.747 56.3837 354.328 58.1886C352.215 60.8767 349.879 62.5603 346.989 64.3539C344.202 66.0832 341.216 67.6594 338.152 68.8311C334.107 70.3775 330.113 72.2291 325.968 73.4844C317.882 75.9329 309.19 76.7166 300.778 76.8753C293.772 77.0075 286.808 76.6258 279.816 76.6258" stroke="white" stroke-width="3" stroke-linecap="round"/>
<path id="Vector 18" d="M309.41 66.0567C309.776 70.3332 311.55 74.3518 312.58 78.4754C312.989 80.1087 313.546 81.6829 314.166 83.2315" stroke="white" stroke-width="3" stroke-linecap="round"/>
<path id="Vector 19" d="M320.243 65.7925C320.401 71.9612 324.273 77.2874 325.263 83.2315" stroke="white" stroke-width="3" stroke-linecap="round"/>
</g>
</g>
</svg>
