<?xml version="1.0" encoding="utf-8"?>
<!-- Generator: Adobe Illustrator 28.2.0, SVG Export Plug-In . SVG Version: 6.00 Build 0)  -->
<svg version="1.0" id="Layer_1" xmlns="http://www.w3.org/2000/svg" xmlns:xlink="http://www.w3.org/1999/xlink" x="0px" y="0px"
	 viewBox="0 0 500 500" enable-background="new 0 0 500 500" xml:space="preserve">
<g>
	<g>
		<path fill="#FFFFFF" stroke="#000000" stroke-width="2.8713" stroke-miterlimit="10" d="M96.8,436.3c2.8-22.5,5.9-46.2,5.9-46.2
			s5.7-50.2,12.9-57.4c7.2-7.2,27.3-18.7,33-18.7c5.7,0,25.8-11.5,33-11.5c7.2,0,51.7,13.5,51.7,13.5s43-4.8,71.7-4.8
			c28.7,0,28.7-4.3,28.7-4.3l27,11.7l39,29.9c0,0,21.2,11.5,25.7,36.6c1.5,8.4,2.7,16.3,3.6,23c36.4-41.9,58.4-96.7,58.4-156.5
			c0-132-107-239-239-239s-239,107-239,239C9.4,326,43.4,392.5,96.8,436.3z"/>
		<path fill="#FFFFFF" stroke="#000000" stroke-width="2.8713" stroke-miterlimit="10" d="M342.4,407.3l6.9,60.9
			c3.3-1.5,6.5-3.1,9.8-4.8c-4.7-6.7-8.2-12.4-9.2-15.9C345.3,431.7,342.4,407.3,342.4,407.3z"/>
		<path fill="#091928" d="M399.8,349.9l-39-29.9l-27-11.7c0,0,0,4.3-28.7,4.3c-28.7,0-71.7,4.8-71.7,4.8s-44.6-13.5-51.7-13.5
			c-7.2,0-27.3,11.5-33,11.5c-5.7,0-25.8,11.5-33,18.7c-7.2,7.2-12.9,57.4-12.9,57.4s-3.1,23.8-5.9,46.2
			C138,471.6,190.8,492,248.4,492c36.1,0,70.3-8,101-22.3l-6.9-60.9c0,0,2.9,24.4,7.5,40.2c1,3.5,4.5,9.2,9.2,15.9
			c26.7-14,50.4-32.8,70-55.4c-0.9-6.7-2-14.6-3.6-23C421,361.4,399.8,349.9,399.8,349.9z"/>
	</g>
	<path fill="#CEA48D" stroke="#000000" stroke-width="1.3999" stroke-miterlimit="10" d="M287.2,227.5c0,0-4,20.5-5.3,33.4
		s0,24.3,0,24.3s-47.2,14.4-49.7,17.3c-2.6,2.9-8.9,7.2-8.9,7.2s-11.5-8.6-12.8-11.5c-1.3-2.9-3.8-27.3-3.8-27.3l-1.3-33"/>
	<path fill="#CEA48D" stroke="#000000" stroke-width="1.4853" stroke-miterlimit="10" d="M199.1,139l-13.8,14.4l3.1,54.6l10.8,39.5
		l18.4,17.9c0,0,7.7,7.2,21.5,5.7c13.8-1.4,32.3-17.2,32.3-17.2l21.5-31.6l1.5-31.6c0,0-4.6-38.8-12.3-45.9s-33.8-12.9-33.8-12.9
		L199.1,139z"/>
	<path fill="#828237" stroke="#000000" stroke-width="1.4356" stroke-miterlimit="10" d="M234.8,111c0,0-23-1.4-33,5.7
		c-10,7.2-23,25.8-23,25.8s0,33,1.4,38.8c1.4,5.7,8.6,23,8.6,23s-2.9-25.8-2.9-27.3s5.7-31.6,5.7-31.6s15.8-8.6,24.4-8.6
		c8.6,0,21.5-4.3,21.5-4.3L234.8,111z"/>
	<path fill="#828237" stroke="#000000" stroke-width="1.4356" stroke-miterlimit="10" d="M292.2,195.7c0,0,2.9-21.5-7.2-31.6
		c-10-10-25.8-24.4-25.8-24.4l-21.5-7.2l-2.9-21.5c0,0,0-7.2,12.9-7.2s22.3,7.1,22.3,7.1l30.8,28.8l8.6,28.7v21.7c0,0-4.3-3-8.6-0.2
		C296.5,192.8,292.2,195.7,292.2,195.7z"/>
	<path fill="#CEA48D" stroke="#000000" stroke-width="1.4853" stroke-miterlimit="10" d="M290.7,197.1c0,0,5.7-8.6,8.6-8.6
		c2.9,0,7.2-2.9,8.6,2.9c1.4,5.7,1.4,12.9-1.4,18.7c-2.9,5.7-4.3,11.5-8.6,14.4s-7.2,4.3-7.2,4.3"/>
	<path fill="#CEA48D" stroke="#000000" stroke-width="1.4659" stroke-miterlimit="10" d="M244.3,180.9c-1,2-2.1,4.4-2.9,7.2
		c-2.1,6.9,4.3,17.9,5,19.4c1.4,2.9-0.2,8.9-3.1,7.5c-2.9-1.4-4.3,0-4.3,0s-1.4,1.4-2.9,1.4c-1.4,0-2.9-1.4-2.9-1.4
		s-1.4-0.7-4.3,0.7c-2.9,1.4-5-5-3.6-7.9c0.7-1.5,7.1-12.4,5-19.4c-0.8-2.8-1.8-5.2-2.9-7.2"/>
	<path fill="none" stroke="#6B6B34" stroke-width="5.7425" stroke-miterlimit="10" d="M224.7,171.9c0,0-20.1-1.4-24.4,2.9"/>
	<path fill="none" stroke="#6B6B34" stroke-width="5.7425" stroke-miterlimit="10" d="M246.2,171.9c0,0,20.1-1.4,24.4,2.9"/>
	<path fill="#6B6B34" d="M234.8,221.7c0,0,0.1-2.4-7.1-2.4c-7.2,0-15.9,7.2-15.9,7.2l-1.3,1.4l18.7-2.9l5.6-0.5L234.8,221.7z"/>
	<path fill="#6B6B34" d="M237.5,221.5c0,0-0.4-2.4,6.8-3.2c7.1-0.7,17.8,6.6,17.8,6.6l0.3,0.2l-18.9-0.9l-5.6,0.1L237.5,221.5z"/>
	<path fill="#091928" stroke="#000000" stroke-width="1.4356" stroke-miterlimit="10" d="M219,305.4c0,0,27.4-11.4,43.8-14.3
		s18.7-9.1,40.5-10.3c21.9-1.2,40.5,34.7,40.5,34.7s-21.5-5.7-41.6-4.3c-20.1,1.4-47.1,7.8-55.9,8.9c-8.7,1.1-33.1-4.6-40.3-6.1
		c-7.2-1.4-23-5.7-23-5.7v-11.7l2.9-7l3.1-2.3c0,0,0.3-12.2,1.5-12.1s7.8-5.8,11,0s2.1,16.6,6.9,21.2
		C213.2,301.1,219,305.4,219,305.4z"/>
	<path fill="#6B6B34" d="M188.2,206.2l2-1.3c0,0,11.5,33,12.9,35.9s1,4.7,2.6,4.5s4.5-16.1,4.5-16.1s2.9,0,2.9,2.2
		c0,2.2-2.9,12.3-1.4,16.6c1.4,4.3,8.6,14.4,15.8,15.8c7.2,1.4,17.2,1.4,21.5-1.4c4.3-2.9,10-9,10-9s1.7-23.7,2.9-25.5
		c1.2-1.8,2.9,1.4,2.9,1.4s-1.4,19.3-1.4,22.6s8.6-6.8,8.6-6.8l14.4-21.5l1.3-27.9l4.7-2.3l-1.7,34.1l-19.5,26.3
		c0,0-10.5,8-13.5,9.7c-2.9,1.7-9.7,5.8-14.9,7.3c-5.2,1.5-18.4-1.5-18.4-1.5s-14.1-10.4-16.3-13c-2.2-2.6-9.1-8.9-9.1-8.9
		L188.2,206.2z"/>
	<path fill="#CEA48D" stroke="#A67C52" stroke-width="1.4356" stroke-miterlimit="10" d="M294.3,199c0,0,3.6-7.1,6.5-7.1
		c2.9,0,4.3,5.7,4.3,5.7s-3.4,14.5-5.3,16.6s-6.2,5-6.2,5s-0.9-10,1.7-13.6c2.6-3.6,5.5-7,5.5-7"/>
	<path fill="#1A1A1A" stroke="#000000" stroke-width="1.4356" stroke-miterlimit="10" d="M256.3,227.8c0,0-8.6,10-21.5,11.5
		c-9.7,1.1-17.2-8.6-17.2-8.6L256.3,227.8z"/>
	<path fill="#F7F7F7" stroke="#000000" stroke-width="0.6873" stroke-miterlimit="10" d="M224.7,183.3c0,1.1-2.3,1.9-5.3,2.9
		c-2.5,0.9-4.2,1.4-6.6,1.4c-2.4,0-4.1-0.6-6.6-1.4c-2.9-1-5.3-1.8-5.3-2.9c0-1.1,2.3-1.9,5.3-2.9c2.5-0.9,4.2-1.4,6.6-1.4
		c2.4,0,4.1,0.6,6.6,1.4C222.4,181.5,224.7,182.3,224.7,183.3z"/>
	<circle fill="#4F3C1D" stroke="#000000" stroke-width="0.7178" stroke-miterlimit="10" cx="213.2" cy="183.3" r="4.3"/>
	<path fill="#F7F7F7" stroke="#000000" stroke-width="0.6873" stroke-miterlimit="10" d="M272.1,181.9c0,1.1-2.3,1.9-5.3,2.9
		c-2.5,0.9-4.2,1.4-6.6,1.4c-2.4,0-4.1-0.6-6.6-1.4c-2.9-1-5.3-1.8-5.3-2.9s2.3-1.9,5.3-2.9c2.5-0.9,4.2-1.4,6.6-1.4
		c2.4,0,4.1,0.6,6.6,1.4C269.7,180,272.1,180.8,272.1,181.9z"/>
	<circle fill="#4F3C1D" stroke="#000000" stroke-width="0.7178" stroke-miterlimit="10" cx="260.6" cy="181.9" r="4.3"/>
	<circle stroke="#000000" stroke-width="0.3589" stroke-miterlimit="10" cx="260.6" cy="181.9" r="2.2"/>
	<circle stroke="#000000" stroke-width="0.3589" stroke-miterlimit="10" cx="213.2" cy="183.3" r="2.2"/>
	<g>
		<path fill="none" stroke="#000000" stroke-width="1.0767" stroke-miterlimit="10" d="M222.6,235.6c0.6,0.4,1.2,0.9,1.9,1.3
			l23.2-1.1c0.9-0.5,1.7-1,2.5-1.5L235,235L222.6,235.6z"/>
		<path fill="#E6E6E6" stroke="#000000" stroke-width="1.0767" stroke-miterlimit="10" d="M234.8,230.1l-16.6,1.2
			c0,0,1.7,2.1,4.4,4.3L235,235l15.2-0.7c4.3-2.9,6.8-5.8,6.8-5.8L234.8,230.1z"/>
		<path fill="#E6E6E6" stroke="#000000" stroke-width="1.0767" stroke-miterlimit="10" d="M235.4,240c4.8-0.5,8.9-2.2,12.3-4.2
			l-23.2,1.1C227.4,238.9,231.2,240.4,235.4,240z"/>
	</g>
	<path stroke="#000000" stroke-width="0.3589" stroke-miterlimit="10" d="M201,182.5"/>
</g>
<g>
	<path fill="#4CA0FF" d="M180.9,365.9c0,0-8.6,10-8.6,24.4c0,14.4-2.9,56-2.9,56s15.8-8.6,30.1-4.3c14.4,4.3,41.6,8.6,41.6,8.6
		s14.4-17.2,21.5-21.5c7.2-4.3,23-5.7,23-5.7l12.9-47.4C298.6,376,218.2,364.5,180.9,365.9z"/>
	<path fill="#ABBAAF" d="M277.8,475.8l-73.2-8.6c0,0,11.5-5.7,21.5-7.2c10-1.4,15.1-9.3,15.1-9.3s4.3-23,22.3-26.6
		c17.9-3.6,22.3-0.7,22.3-0.7L277.8,475.8z"/>
	<path fill="#565E5D" d="M169.4,446.4l-3.6,17.8l38.4,2.8c0,0,7.1-4.3,21.3-7.1c14.2-2.8,14.9-9.2,14.9-9.2s-31.5-10.2-48.8-9.7
		S169.4,446.4,169.4,446.4z"/>
</g>
</svg>
