<?xml version="1.0" encoding="UTF-8"?>
<svg id="Layer_1" data-name="Layer 1" xmlns="http://www.w3.org/2000/svg" viewBox="0 0 1920 1080">
  <defs>
    <style>
      .cls-1 {
        stroke-width: 0px;
      }
    </style>
  </defs>
  <path class="cls-1" d="M389.45,200.45c-11.33,60.74-40.25,116.96-82.04,162.37-4.35,4.73-4.68,12.16,0,16.84,4.41,4.41,12.47,4.75,16.84,0,44.43-48.28,76.1-108.2,88.17-172.88,1.18-6.31-1.75-12.84-8.32-14.65-5.8-1.59-13.46,1.96-14.65,8.32h0Z"/>
  <path class="cls-1" d="M388.76,211.41c14.01,31.55,27.72,63.25,42.12,94.63,13.09,28.55,28.22,56.26,50.03,79.18,5.68,5.97,18.52,3.75,19.9-5.25,10.41-67.91,13.65-136.67,9.05-205.23-.43-6.42-5.16-11.91-11.91-11.91-6.11,0-12.34,5.46-11.91,11.91,4.45,66.33,1.88,133.17-8.2,198.9l19.9-5.25c-20.75-21.81-34.61-48.73-47.01-75.9-14.1-30.89-27.63-62.06-41.41-93.09-2.61-5.88-11.18-7.26-16.29-4.27-6.06,3.54-6.89,10.39-4.27,16.29h0Z"/>
  <path class="cls-1" d="M586.71,329.88c21.84-10.05,44.27-27.3,55.75-48.92,7.01-13.21,6.67-29.35-7.33-37.78-11.3-6.8-26.57-6.93-39.12-4.42-25.32,5.07-45.98,27.19-46.17,53.54-.17,23.46,16.93,43.92,37.52,53.34,27.82,12.73,60.32,7.77,86.28-7.1,13.3-7.62,1.31-28.2-12.02-20.56-15.7,8.99-34.86,13.92-52.84,9.94-7.56-1.67-14.84-4.87-20.67-9.42-5.92-4.62-11.01-11.11-12.94-17.16-2.13-6.68-2.16-13.17.86-20.04,3.24-7.36,9.15-12.99,16.39-16.44s15.21-4.54,22.76-3.45c2.5.36,7.54,1.42,8.34,2.58-.67-.99-.03.61-.02.56-.34,2.11-1.31,3.97-2.37,5.79-10.23,17.6-28.27,30.63-46.43,38.99-5.84,2.69-7.29,11.13-4.27,16.29,3.51,6,10.43,6.97,16.29,4.27h0Z"/>
  <path class="cls-1" d="M689.07,227.11c6.61,29.03,20.24,55.79,38.71,79.03,4.47,5.62,9.25,10.99,14.32,16.08,6.27,6.31,13.02,13.43,22.74,12.27,8.2-.98,13.95-7.32,17.09-14.58,3.53-8.17,6.8-16.46,9.84-24.82,6.44-17.67,11.76-35.73,16.02-54.05,1.46-6.26-1.94-12.89-8.32-14.65-6.02-1.65-13.18,2.03-14.65,8.32-4.12,17.71-9.23,35.17-15.38,52.28-2.94,8.18-6.26,16.17-9.63,24.17-.76,1.81-.22.53-.18.61,4.23,1.37,6,1.17,5.31-.6-.82-.76-1.63-1.52-2.44-2.29-2.81-2.68-5.54-5.45-8.19-8.3-20.84-22.43-35.51-49.96-42.3-79.81-1.43-6.27-8.65-9.96-14.65-8.32-6.44,1.77-9.75,8.36-8.32,14.65h0Z"/>
  <path class="cls-1" d="M821.84,322.12c21.22-8.04,40.86-18.83,58.71-32.85,9.27-7.28,20.42-16.68,15.81-29.85-4.01-11.47-18.54-14.11-29.2-14.03-23.78.18-42.4,15.05-50.97,36.63-4.01,10.12-6.29,21.71-4.4,32.52,1.98,11.35,9.98,20.02,19.74,25.57,22.18,12.62,50.12,14.72,74.46,8,14.75-4.07,8.49-27.05-6.33-22.96-13.21,3.65-27.06,3.94-40.36.5-9.88-2.56-24.59-6.96-24.43-19.12.14-10.8,4.81-23.4,13.1-30.51,4.39-3.77,10.2-6.09,15.95-6.72,2.5-.27,5.49-.24,8.04.14.72.11,2.3.78,3.13.72,1.41.48,1.73.56.98.23-1.57-2.22-1.86-2.34-.87-.37l-1.63-6.01c.41,3.35.18-.31.28-.27-.01,0-3.47,3.25-3.63,3.39-2.12,1.82-4.28,3.61-6.51,5.31-4.79,3.65-9.81,7.04-14.94,10.22-10.54,6.54-21.67,12.12-33.27,16.51-6.01,2.28-10.13,8.03-8.32,14.65,1.58,5.76,8.6,10.61,14.65,8.32h0Z"/>
  <path class="cls-1" d="M948.71,263.5c-3.05,26.06-4.35,52.27-3.89,78.5.27,15.3,23.99,15.36,23.81,0-.16-13.44-.31-26.89-.47-40.33-.06-4.89-.78-10.39.76-15.11.45-1.37,1.29-2.13.3-.93.3-.37,2.62-2.1.93-.99.62-.41,1.29-.78,1.96-1.09-2,.93,1.31-.27,1.48-.32,2-.63-.32-.12.88-.16.99-.03,1.95-.03,2.94-.01,2.14.05-.29-.19.88.17.91.28,1.87.45,2.75.84-1.55-.67.1.13.66.58.7.46.62.4-.22-.18l.78.78c-.62-.42-.75-.66-.39-.71.91-.18,1.17-1.03.77-2.56.9-3.38,1.31-2.99-.68-1.52-11.18,8.24-22.49,16.31-33.73,24.46-6.01,4.36-8.38,12.95-2.41,18.7,17.74,17.08,37.44,32.12,58.52,44.86,13.15,7.95,25.13-12.64,12.02-20.56-19.41-11.73-37.35-25.4-53.7-41.14-.8,6.23-1.61,12.47-2.41,18.7,7.76-5.63,15.52-11.26,23.29-16.89,7.17-5.2,18.37-10.69,21.28-19.66,5.62-17.32-13.76-29.56-28.59-29.72-15.86-.17-28.92,10.2-31.25,26.03-1.32,8.97-.61,18.23-.51,27.27.11,9.84.23,19.67.34,29.51h23.81c-.47-26.23.84-52.44,3.89-78.5.75-6.4-6.01-11.91-11.91-11.91-7.06,0-11.15,5.49-11.91,11.91h0Z"/>
  <path class="cls-1" d="M1282.75,346.41c-29.46-1.57-57.8,7.9-83.64,21.33-12.63,6.56-24.72,14.11-36.62,21.9-11.47,7.51-26.26,15.98-29.63,30.45-7.04,30.27,36.9,37.89,57.37,42.97,5.43,1.35,10.85,2.79,16.11,4.73,2.96,1.09,8.61,3.88,11.38,6.13.37.3,3.6,3.48,3.95,3.93-.45-.57,1.66,2.72,1.6,2.72.14,0-.05-1.26.12-1.56.89-1.69,1.56-1.36.04-.68-4.32,1.92-10.57,5.37-15.94,7.31-14.97,5.42-30.79,8.35-46.56,10.23-8.22.98-16.46,1.85-24.71,2.52-3.51.29-7.42.78-10.83-.25-.55-.16-1.66-.66-1.84-.75-1.91-.96-.2-1.27-.21.17.13-15.33-23.69-15.34-23.81,0-.16,19.09,19.92,25.87,35.8,24.71,16.05-1.18,32.22-3.01,48.07-5.83,15.34-2.72,30.29-7,44.41-13.67,7.37-3.49,15.15-7.76,17.99-15.95,3.11-8.97-.68-17.66-6.35-24.63-15.83-19.46-43.36-21.07-65.66-27.96-5.84-1.8-9.37-3.07-14.43-6.12-.96-.58-1.67-1.02-2.32-1.59-.31-.27-1.7-2.15-1.16-1.27.7,1.15-.73,1.36.29-.13-.38.56,1.14-1.79,1.4-2.12,3.8-4.8,9.75-8.08,14.82-11.42,6.39-4.21,12.83-8.36,19.37-12.33,27.66-16.79,57.9-30.81,90.99-29.04,6.43.34,11.91-5.72,11.91-11.91,0-6.73-5.46-11.56-11.91-11.91h0Z"/>
  <path class="cls-1" d="M1283.17,394.27c-3.47,36.05-1.84,72.5,4.78,108.11,2.68,14.4,8.37,30.02,22.01,37.47,12.4,6.78,30.68,7.05,40.39-4.62,4.11-4.94,4.84-12,0-16.84-4.23-4.23-12.71-4.97-16.84,0-.21.25-2.5,2.54-1,1.29-1.96,1.64,1-.15-1.43.73-2.71.98,1.3.19-1.65.36-1.24.07-2.55.06-3.78-.11,1.93.28-1.72-.57-1.84-.61l-1.21-.41c.69.31.67.29-.06-.07-.55-.27-2.83-1.73-2.44-1.42.72.57-1.67-1.68-1.93-1.99-6.98-8.28-7.86-22.63-9.43-33.3-4.3-29.27-4.59-59.19-1.76-88.6.62-6.41-5.91-11.91-11.91-11.91-6.95,0-11.29,5.48-11.91,11.91h0Z"/>
  <path class="cls-1" d="M1278.46,471.34c23.21.89,46.4-1.08,69.2-5.54,6.31-1.24,9.93-8.78,8.32-14.65-1.81-6.59-8.31-9.55-14.65-8.32-20.73,4.05-41.77,5.49-62.87,4.68-15.33-.59-15.3,23.23,0,23.81h0Z"/>
  <path class="cls-1" d="M1384.39,451.2c-16.74,7.32-20.29,27.35-20.4,43.66-.12,17.14,5.21,35.94,23.28,41.74,9.76,3.13,20.26.79,29.93-1.49,8.58-2.02,17.6-4.64,24.87-9.79,17.5-12.41,19.62-34.99,11.56-53.65s-24.78-31.45-43.86-35.66c-6.27-1.38-12.88,1.89-14.65,8.32-1.64,5.96,2.01,13.26,8.32,14.65,10.55,2.32,19.93,8.23,25.53,16.86,4.68,7.23,9.05,19.55,2.83,27.07-3.01,3.64-7.99,5.6-12.83,7.09-5.97,1.84-12.49,3.7-18.72,4.22-2.17.18-4.72.16-6.38-.45-1.89-.7-2.47-1.56-3.16-2.74-1.96-3.34-2.68-8.01-2.85-12.31-.12-2.98-.06-5.96.11-8.94.2-3.51.32-4.69.91-7.34.83-3.73,1.03-4.64,2.73-7.29.72-1.11.16-.33-.03-.09.5-.62,1.12-1.27,1.74-1.77-.23.18-1.01.72.14-.03.93-.61,1.95-1.05,2.96-1.5,5.89-2.58,7.25-11.2,4.27-16.29-3.56-6.08-10.37-6.86-16.29-4.27h0Z"/>
  <path class="cls-1" d="M1462.78,444.96c1.77,43.63,3.54,87.27,5.31,130.9h23.81c-3.64-34-7.75-69.24-.52-103.05,2.45-11.47,6.44-27.07,19.51-28.37.95-.09,2.98.13,4.19.67,2.5,1.11,3.94,3.06,5.03,5.58,2.21,5.1.76,12.93-.46,18.84s-2.23,13.72-7.47,16.19c1.52-.72-3.47.85-1.48.52-.65.11-1.33.07-1.99.11-.27.01-2.92-.14-1.46.06-1.03-.14-3.39-.87-3.56-.95-1.18-.55-1.61-1.12-2.36-1.9-10.67-11.04-27.49,5.81-16.84,16.84,14.72,15.24,41.5,12.01,52.02-6.36,5.29-9.24,7.21-21.06,8.24-31.5,1.11-11.24-1.59-22.46-9.05-31.1-14.88-17.23-41.61-11.75-54.59,4.67-13.48,17.04-15.81,42.45-16.99,63.38-1.44,25.52,1.26,51.04,3.98,76.39.68,6.39,4.98,11.91,11.91,11.91,6.25,0,12.17-5.45,11.91-11.91-1.77-43.63-3.54-87.27-5.31-130.9-.26-6.43-5.29-11.91-11.91-11.91-6.25,0-12.17,5.45-11.91,11.91h0Z"/>
  <path class="cls-1" d="M538.58,661.09c16.96-9.71,33.37-27.31,35.33-47.58,1.03-10.69-4.11-21.05-14.11-25.48-10.39-4.6-22.19-1.98-30.94,4.82-16.02,12.46-24.35,36.06-22.15,55.92,2.35,21.3,14.84,38.77,35.31,45.97,10.58,3.72,22.31,4.22,33.42,4.16,12.23-.07,23.26-1.33,31.14-11.64,3.91-5.11.79-13.33-4.27-16.29-6.13-3.58-12.37-.85-16.29,4.27.41-.53.38-1,1.12-1.22-1.29.39-2.59.76-3.93.93-1.07.14-6.15.13-8.58.14-6.22.02-12.57-.04-18.67-1.26-11.44-2.29-20.53-8.46-24.02-19.55-3.55-11.29-1.44-24.24,5.01-34.86,2.42-3.98,5.72-8.64,10.2-9.78,1.22-.31,1.6-.28,2.42-.15-.35-.05,1.78.92.73.27s.38-.95-.25-.34c-.13.12.3,1.07.17.04.11.86.08,1.82,0,2.69.07-.82-.56,2.27-.77,2.93-.48,1.52-.65,1.86-1.29,3.13-1.37,2.74-2.96,5.49-4.78,7.94-4.45,6-10.4,10.7-16.83,14.38-13.3,7.61-1.31,28.2,12.02,20.56h0Z"/>
  <path class="cls-1" d="M619.63,607.73c21.03,39.1,53.01,71.55,90.71,94.79,13.08,8.06,25.05-12.53,12.02-20.56-34.36-21.18-63.01-50.64-82.17-86.25-7.26-13.5-27.83-1.49-20.56,12.02h0Z"/>
  <path class="cls-1" d="M698.36,603.98c-33.78,22.3-65.4,47.89-93.97,76.57-10.83,10.87,6,27.71,16.84,16.84,27.18-27.28,57.02-51.63,89.15-72.85,5.36-3.54,7.64-10.52,4.27-16.29-3.12-5.33-10.9-7.83-16.29-4.27h0Z"/>
  <path class="cls-1" d="M723.59,623.27c1.22,52.62,1.44,105.27.64,157.9-.23,15.33,23.58,15.33,23.81,0,.8-52.63.58-105.28-.64-157.9-.36-15.3-24.17-15.35-23.81,0h0Z"/>
  <path class="cls-1" d="M751.35,654.08c-1.98-5.11-2.07-9.13-.12-13.38,2.17-4.72,6.21-8.13,10.83-9.62,10.53-3.39,21.67-.02,27.53,10.71,2.04,3.73,5.44,11.29,4.42,15.58-.71,2.97-3.95,6.22-5.83,8.63-2,2.55-4.09,5.06-6.31,7.43-4.37,4.65-9.49,8.8-15.28,10.42-5.37,1.5-9.94,1.32-14.42-1.62-5.38-3.53-13.16-1.07-16.29,4.27-3.4,5.81-1.12,12.75,4.27,16.29,14.4,9.46,34.28,6.48,47.79-3.19,7.01-5.02,12.69-11.14,17.96-17.91,5.9-7.57,12-14.94,11.9-25.11-.17-16.93-9.59-35.69-24.37-44.3-14.06-8.2-32.97-8.33-47.06-.13-16.17,9.42-24.9,30.43-18.01,48.24,2.32,5.99,8,10.14,14.65,8.32,5.73-1.57,10.65-8.62,8.32-14.65h0Z"/>
  <path class="cls-1" d="M831.96,576.12c.71,27.48,1.36,54.97,2.14,82.45.35,12.37,2.36,24.39,11.7,33.33,8.55,8.18,20.73,12.7,32.55,11.63,6.4-.58,11.91-5.06,11.91-11.91,0-5.99-5.46-12.49-11.91-11.91s-13.45-1.4-16.99-5.82c-5.41-6.76-3.54-18.89-3.76-27.1-.61-23.56-1.22-47.11-1.83-70.67-.4-15.29-24.21-15.35-23.81,0h0Z"/>
  <path class="cls-1" d="M924.98,613.32c-13.46,3.27-23.81,13.24-29.29,25.74-5.86,13.37-10.48,33.59,3.27,43.59,10.99,7.98,27.24,9.34,40.14,6.43,14.46-3.26,30.07-16.01,27.7-32.34-1.39-9.58-9.69-17.69-15.29-25.17-6-8-11.99-15.99-17.99-23.99-3.85-5.14-10.29-7.78-16.29-4.27-5.06,2.96-8.15,11.11-4.27,16.29,9.61,12.82,19.78,25.39,28.9,38.57.69.94,1.31,1.93,1.86,2.96l-.4-1.23s-1,1.35-1.13,1.45c1.24-.97-1.23,1.12-1.49,1.35,1.03-.9-1.79,1.16-2.23,1.42-3.35,1.99-8.01,2.66-12.71,2.53-2.79-.08-3.41-.13-6.42-.87-2.49-.61-4.48-1.85-6.11-2.16-1.7-1.17-1.61-.92.27.76.29,1.87.4,2.14.32.82.28-1.3.06-2.89.18-4.24.09-.84.08-.85-.05-.05.09-.65.2-1.29.33-1.93.29-1.51.61-3.01,1.02-4.5,1.13-4.13,3.1-8.59,5.02-11.06.78-1.01,1.68-1.94,2.6-2.83-.01.01,2.92-2.33,1.55-1.37,2.77-1.94,3.5-2.13,6.83-2.94,14.88-3.62,8.58-26.59-6.33-22.96h0Z"/>
  <path class="cls-1" d="M983.82,628.76c1.25,21.91,3.47,43.72,6.43,65.46.79,5.78,7.89,9.31,13.06,8.53,5.71-.86,10.43-5.66,10.32-11.69-.38-21.68,3.79-43.68,13.15-63.33,1.23-2.59,1.94-2.2-3.05-.41-1.51,1.4-3.05,1.8-4.63,1.22l-.39-.2c-.04.13,1.35,2.2,1.67,2.95,1.37,3.17,3.37,9.19,2.42,11.58.02-.04-.85,1.83-.56.99-.79,2.34-1.38.89-.71.68,1.04-.32-.47.05-.89.03-.95-.05-1.89-.12-2.84-.19-6.46-.44-12.03.76-16.97,5.2-4.56,4.1-4.66,12.76,0,16.84,16.41,14.34,32.82,28.68,49.23,43.02,4.84,4.23,12.08,4.76,16.84,0,4.32-4.32,4.86-12.59,0-16.84-16.41-14.34-32.82-28.68-49.23-43.02v16.84c-4.55,1.28-5.44,1.81-2.68,1.6.7.02,1.4.06,2.1.12,1.64.11,3.27.31,4.92.23,3.97-.19,7.95-1.22,11.41-3.22,6.62-3.84,11.45-10.8,12.84-18.3,2.69-14.58-5.51-39.73-22.78-41.48-9.71-.98-15.19,5.59-18.76,13.66-3.36,7.61-6.34,15.36-8.62,23.37-4.48,15.75-6.56,32.29-6.27,48.65,7.8-1.06,15.59-2.11,23.39-3.17-2.67-19.62-4.46-39.36-5.58-59.13-.37-6.42-5.21-11.91-11.91-11.91-6.16,0-12.27,5.45-11.91,11.91h0Z"/>
  <path class="cls-1" d="M1072.46,636.01c-1.21,18.18-.62,36.37,1.74,54.43.83,6.37,4.87,11.91,11.91,11.91,5.78,0,12.75-5.49,11.91-11.91-2.37-18.07-2.95-36.25-1.74-54.43.43-6.42-5.78-11.91-11.91-11.91-6.8,0-11.48,5.46-11.91,11.91h0Z"/>
  <path class="cls-1" d="M1080.15,606.16c15.32,0,15.35-23.81,0-23.81s-15.35,23.81,0,23.81h0Z"/>
  <path class="cls-1" d="M1117.46,628.66c-2.03,18.23-.65,36.6,3.61,54.43,1.36,5.7,7.45,9.37,13.06,8.53,5.25-.79,11.06-5.75,10.32-11.69-1.31-10.54-1.56-21.36-.06-31.9.39-2.75.94-5.49,1.54-8.21.21-.97,2.29-7.48,1.99-7.72.02.02-.21.16-.26.14l-2.65,1.18c1.39-.47,1.94-.46,1.64.05,1.35.67,2.29.71,3.83,1.85,5.96,4.43,7.16,14.18,8.29,21.75,1.82,12.14,3.58,24.29,5.36,36.44.94,6.37,8.99,9.87,14.65,8.32,6.83-1.88,9.26-8.26,8.32-14.65-2.2-14.92-3.57-30.27-6.86-45-3.12-13.93-11.76-26.71-25.84-31.22-7.66-2.46-16.92-1.72-22.99,3.96-5.41,5.07-7.14,12.46-8.63,19.46-3.2,14.97-4.02,30.34-2.13,45.53,7.8-1.06,15.59-2.11,23.39-3.17-3.78-15.84-4.56-31.92-2.76-48.1.71-6.4-5.98-11.91-11.91-11.91-7.03,0-11.19,5.49-11.91,11.91h0Z"/>
  <path class="cls-1" d="M1299.84,646.98c.97-16.33-17.5-24.97-31.46-22.14-14.81,3.01-24.64,17.97-31.6,30.19-7.97,14.01-10.08,31.22,1.58,43.91s30.17,10.64,41.71-.45c6.09-5.85,9.99-13.77,11.59-21.99,1.7-8.76,1.65-17.68,5.06-26.05-7.8-1.06-15.59-2.11-23.39-3.17,2.88,28.19,6.68,62.18-12.69,85.77-19.76,24.06-53.35,33.31-82.4,40.04-66.43,15.39-136.74,15.73-198.46,47.75-28.74,14.91-55.43,37.09-68.96,67.14-2.64,5.86-1.69,12.8,4.27,16.29,5.1,2.98,13.64,1.62,16.29-4.27,24.75-54.96,91.06-75.31,146.35-85.5,35.85-6.61,72.22-10.35,107.74-18.66,31.77-7.43,66.65-18.39,89.47-43.08,26.85-29.03,25.96-68.63,22.2-105.48-1.4-13.7-18.26-15.75-23.39-3.17-4.48,10.99-2.15,25.84-8.31,34.99-.85,1.26-2.05,2.58-3.08,3.33-.24.17-2.6,1.48-1.45.99-.2.09-3.58.54-2.25.54-2.67,0-3.67-1.65-4.49-3.95-.18-.51-.59-2.85-.42-1.28-.09-.84-.1-1.87.02-2.72.34-2.63,1.49-5.14,2.72-7.45,2.54-4.75,6.15-10.4,9.18-14.16,1.43-1.78,3.36-3.87,4.95-5-.79.55,3.17-1.69,2.37-1.25.56-.3,1.71-.25.36-.16.28-.02,3.62.36,1.75.03,1.26.44,1.56.5.89.16-.64-.35-.39-.22.75.39,1.47-.13.5,1.39-.24-.58-.27-.72-.34-3.56-.49-1.03-.38,6.43,5.75,11.91,11.91,11.91,6.76,0,11.52-5.46,11.91-11.91h0Z"/>
  <path class="cls-1" d="M967.25,791.76c22.94,29.09,42.03,61.24,56.97,95.12,2.59,5.89,11.19,7.25,16.29,4.27,6.07-3.55,6.87-10.38,4.27-16.29-15.82-35.89-36.42-69.17-60.69-99.94-3.99-5.05-12.67-4.17-16.84,0-4.99,4.99-4,11.77,0,16.84h0Z"/>
  <path class="cls-1" d="M1028.39,792.44c12.38,27.4,26.21,54.12,41.39,80.07,7.74,13.22,28.33,1.25,20.56-12.02-15.19-25.95-29.01-52.67-41.39-80.07-2.65-5.86-11.15-7.28-16.29-4.27-6.03,3.53-6.93,10.41-4.27,16.29h0Z"/>
</svg>