<?xml version="1.0" encoding="UTF-8"?>
<svg id="BACKGROUND" xmlns="http://www.w3.org/2000/svg" viewBox="0 0 2498.02 2244.28">
  <defs>
    <style>
      .cls-1 {
        fill: #edcca2;
      }

      .cls-1, .cls-2, .cls-3, .cls-4, .cls-5, .cls-6, .cls-7 {
        stroke-width: 0px;
      }

      .cls-2 {
        fill: #d19f69;
      }

      .cls-3 {
        fill: #a87038;
      }

      .cls-4 {
        fill: #e2bf9a;
      }

      .cls-5 {
        fill: #dbad83;
      }

      .cls-6 {
        fill: #e2bf91;
      }

      .cls-7 {
        fill: #ecd5b2;
      }
    </style>
  </defs>
  <rect class="cls-3" y="0" width="2498.02" height="2180.22"/>
  <g>
    <g>
      <rect class="cls-6" y="372.66" width="2498.02" height="366.94"/>
      <g>
        <g>
          <path class="cls-2" d="M147.82,494.87c0-5.16-42.01-9.35-93.84-9.35-20.1,0-38.71.63-53.98,1.7v15.29c15.27,1.07,33.88,1.7,53.98,1.7,51.83,0,93.84-4.19,93.84-9.35Z"/>
          <path class="cls-2" d="M462.02,437.43c0-5.9-85.9-10.69-191.86-10.69s-191.86,4.78-191.86,10.69,85.9,10.69,191.86,10.69,191.86-4.78,191.86-10.69Z"/>
          <path class="cls-2" d="M412.66,482.85c-119.4,0-216.18,2.39-216.18,5.34s96.79,5.34,216.18,5.34,216.18-2.39,216.18-5.34-96.79-5.34-216.18-5.34Z"/>
          <path class="cls-2" d="M213.16,538.95c-96.74,0-175.17,4.19-175.17,9.35s78.43,9.35,175.17,9.35,175.17-4.19,175.17-9.35-78.43-9.35-175.17-9.35Z"/>
          <path class="cls-2" d="M143.65,672.53c0-5.9-44.19-10.69-98.71-10.69-16.19,0-31.46.42-44.94,1.17v19.03c13.48.75,28.75,1.17,44.94,1.17,54.52,0,98.71-4.78,98.71-10.69Z"/>
          <path class="cls-2" d="M883.26,580.36c0-6.64-199.8-12.02-446.27-12.02C221.68,568.34,41.99,572.45,0,577.91v4.9c41.99,5.46,221.68,9.57,436.99,9.57,246.47,0,446.27-5.38,446.27-12.02Z"/>
          <path class="cls-2" d="M2286.6,494.87c0,5.16,60.06,9.35,134.15,9.35,28.78,0,55.42-.63,77.27-1.71v-15.28c-21.85-1.08-48.49-1.71-77.27-1.71-74.09,0-134.15,4.19-134.15,9.35Z"/>
          <path class="cls-2" d="M2148.2,448.12c171.63,0,310.99-4.8,310.76-10.69-.09-2.37-139.29-4.71-310.76-10.69-171.59-5.98-310.76,4.78-310.76,10.69s139.13,10.69,310.76,10.69Z"/>
          <ellipse class="cls-2" cx="1690.08" cy="482.18" rx="526.96" ry="6.34"/>
          <path class="cls-2" d="M2443.6,548.3c0-5.16-112.11-9.35-250.41-9.35s-250.41,4.19-250.41,9.35,112.11,9.35,250.41,9.35,250.41-4.19,250.41-9.35Z"/>
          <path class="cls-2" d="M2292.56,672.53c0,5.9,63.17,10.69,141.11,10.69,23.19,0,45.05-.43,64.35-1.18v-19.02c-19.3-.75-41.16-1.18-64.35-1.18-77.93,0-141.11,4.78-141.11,10.69Z"/>
          <path class="cls-2" d="M2163.26,580.36c0,6.64,77.88,12.02,173.96,12.02,72.55,0,134.7-3.07,160.8-7.43v-9.18c-26.1-4.36-88.25-7.43-160.8-7.43-96.07,0-173.96,5.38-173.96,12.02Z"/>
        </g>
        <g>
          <path class="cls-2" d="M718.71,670.61c91.18,0,182.86-6.45,273.37-27.95,43.99-10.45,88.45-24.66,131.44-38.4,52.47-16.77,106.73-34.11,160.5-44.72,110.04-21.72,220.7-16.14,323.89-6.87,85.1,7.64,171.7,18.58,255.45,29.16,208.32,26.31,422.62,53.37,634.65,32.37v-8.02c-211.87,21.02-426.11-6.03-634.38-32.34-83.77-10.58-170.39-21.52-255.53-29.17-103.36-9.27-214.2-14.86-324.51,6.91-53.9,10.64-108.23,28-160.76,44.79-42.95,13.73-87.36,27.92-131.27,38.35-158.97,37.76-321.68,28.99-479.03,20.5L0,627.58v8.02l512.42,27.63c68.01,3.67,137.01,7.39,206.29,7.39Z"/>
          <path class="cls-2" d="M2498.02,709.7c-110.89.97-222.07,10.98-332.56,29.9h50.28c93.9-13.77,188.19-21.06,282.27-21.88v-8.02Z"/>
          <path class="cls-2" d="M397.08,684.69c59.75.67,120.33,11.12,178.92,21.22,48.48,8.36,98.6,17,148.08,20.08,126,7.87,253.85-19.86,377.48-46.66,151.21-32.78,307.55-66.68,460.86-35.24,41.08,8.43,82.57,21.7,122.7,34.54,46.64,14.92,94.88,30.35,142.81,38.29,122.92,20.35,247.92-7.73,368.8-34.88,98.85-22.2,200.45-45.01,301.3-41.4v-8.01c-101.09-3.61-202.81,19.22-301.78,41.45-120.68,27.11-245.47,55.14-367.96,34.86-47.77-7.91-95.92-23.31-142.48-38.21-40.18-12.86-81.74-26.15-122.94-34.6-153.76-31.54-310.34,2.41-461.77,35.24-123.48,26.77-251.17,54.46-376.87,46.62-49.35-3.08-99.42-11.71-147.84-20.06-58.67-10.11-119.34-20.57-179.27-21.25-73.4-.79-148,12.97-220.13,26.32C118.72,713.77,59.39,724.73,0,728.08v8.01c59.55-3.35,119.01-14.32,177.38-25.12,72.02-13.33,146.51-27.06,219.7-26.28Z"/>
          <path class="cls-2" d="M711.08,453.41c15.51,5.2,31.3,10.96,46.56,16.52,54.68,19.93,111.11,40.5,167.58,40.5,3.8,0,7.59-.09,11.39-.29,55.05-2.79,109.69-26.49,162.54-49.41,44.05-19.1,89.6-38.86,135.14-46.39,53.39-8.82,107.88-1.05,160.59,6.47,28.75,4.1,58.48,8.35,87.76,9.86,71.82,3.73,144.59-8.76,214.96-20.83,34.37-5.9,69.91-11.99,104.89-16.13,121.14-14.3,244.48-6.09,363.77,1.85l331.77,22.09v-8.02l-331.62-22.08c-119.39-7.95-242.83-16.16-364.17-1.84-35.03,4.14-70.6,10.24-105,16.14-70.25,12.05-142.89,24.51-214.47,20.81-29.18-1.51-58.86-5.75-87.56-9.84-52.87-7.54-107.53-15.34-161.25-6.46-45.82,7.57-91.51,27.39-135.7,46.55-52.65,22.83-107.1,46.45-161.73,49.21-59.83,3.01-119.94-18.88-178.09-40.08-15.28-5.57-31.08-11.33-46.62-16.54C476.29,366.5,234.69,390.22,0,418.07v8.03c234.53-27.83,475.95-51.57,711.08,27.31Z"/>
          <path class="cls-2" d="M1497.93,667.89c-31.26-7.46-62.14-8.33-85.58-8.34-136.62.2-273.41,38.35-406.75,80.05h26.19c125.08-38.44,252.95-71.85,380.57-72.04,23.24-.06,54.03.87,85.06,8.28,33.31,7.95,66.89,23.3,99.36,38.15,19.65,8.98,39.53,18.07,59.57,25.61h23.88c-27.78-8.41-55.35-21-82.49-33.41-32.59-14.89-66.28-30.3-99.81-38.3Z"/>
          <path class="cls-2" d="M1592.66,624.02c93.1,49.27,189.75,74.25,287.27,74.25h.02c79.88,0,159.53-16.9,236.72-50.24l17.98-7.76-18.43-.15c-79.46-.66-160.11-15.46-238.11-29.77-79.78-14.64-162.29-29.78-243.53-29.78-22.64,0-44.74,1.19-65.68,3.53l-2.67.3.8,4.9c3.32,20.4,14.82,29,25.63,34.72ZM1634.59,588.58c81.05,0,163.45,15.12,243.14,29.74,72.02,13.22,146.29,26.84,219.89,29.4-71.21,28.23-144.33,42.53-217.67,42.53h-.02c-97.15,0-193.43-24.89-286.16-73.96-8.72-4.62-17.92-11.14-21.68-24.51,19.98-2.12,40.99-3.2,62.5-3.2Z"/>
          <path class="cls-2" d="M1751.61,633.62c44.64,11.63,71.61,18.21,106.83,18.21h0c11.78,0,24.29-.76,38.27-2.31l11.68-1.3-11.19-6.54c-39.29-22.95-80.11-34.58-121.33-34.58-11.15,0-22.42.87-33.5,2.6l-1.28.2-.48,2.29c-.74,3.5-.61,7.06.37,10.3,1.89,6.26,6.7,10.1,10.63,11.12ZM1775.87,615.12c36.63,0,72.93,9.28,108.11,27.6-9.03.73-17.46,1.09-25.54,1.09h0c-34.95,0-61.8-6.55-106.27-18.14-3.29-.86-6.62-4.02-7.58-7.2-.11-.35-.18-.69-.23-1.03,10.43-1.54,21.02-2.32,31.51-2.32Z"/>
          <path class="cls-2" d="M824.21,445.9c8.79.81,17.56,1.2,26.33,1.2,85.35,0,169.47-36.71,251.25-74.44h-17.96c-84.58,38.55-171.52,73.38-259.42,65.24-58.42-5.4-116.68-30.12-173.02-54.02-8.82-3.74-17.72-7.5-26.65-11.21h-20.06c15.4,6.16,30.7,12.63,45.81,19.04,56.51,23.98,114.94,48.77,173.72,54.2Z"/>
          <path class="cls-2" d="M1013.22,372.66h-15.89c-105.7,52.44-217.45,52.6-323.28,0h-15.93c57.89,31.64,117.72,47.44,177.54,47.44s119.7-15.88,177.56-47.44Z"/>
        </g>
      </g>
    </g>
    <g>
      <rect class="cls-7" y="0" width="2498.02" height="366.94"/>
      <g>
        <path class="cls-6" d="M592.7,79.45c0-4.43-99.28-8.01-221.75-8.01s-221.75,3.59-221.75,8.01,99.28,8.01,221.75,8.01,221.75-3.59,221.75-8.01Z"/>
        <path class="cls-6" d="M757.44,124.87c-149.34,0-270.4,2.99-270.4,6.68s121.06,6.68,270.4,6.68,270.4-2.99,270.4-6.68-121.06-6.68-270.4-6.68Z"/>
        <path class="cls-6" d="M147.82,140.89c0-4.43-45.75-8.01-102.18-8.01-16.41,0-31.9.3-45.63.84v14.34c13.74.54,29.23.84,45.63.84,56.43,0,102.18-3.59,102.18-8.01Z"/>
        <path class="cls-6" d="M282.67,242.41c0-4.43-74.07-8.01-165.44-8.01C71.42,234.4,29.96,235.3,0,236.76v11.31c29.96,1.46,71.42,2.36,117.23,2.36,91.37,0,165.44-3.59,165.44-8.01Z"/>
        <path class="cls-6" d="M183.96,313.21c0-6.64-48.24-12.02-107.74-12.02-29.77,0-56.72,1.35-76.22,3.52v16.99c19.5,2.18,46.45,3.52,76.22,3.52,59.51,0,107.74-5.38,107.74-12.02Z"/>
        <path class="cls-6" d="M322.99,261.11c-126.69,0-229.39,4.78-229.39,10.69s102.7,10.69,229.39,10.69,229.39-4.78,229.39-10.69-102.7-10.69-229.39-10.69Z"/>
        <path class="cls-6" d="M329.94,166.27c0,3.69,124.49,6.68,278.05,6.68s278.05-2.99,278.05-6.68-124.49-6.68-278.05-6.68-278.05,2.99-278.05,6.68Z"/>
        <path class="cls-6" d="M151.29,45.39c0-5.53-40.15-10.02-89.67-10.02C37.75,35.37,16.07,36.41,0,38.11v14.55c16.07,1.7,37.75,2.74,61.62,2.74,49.52,0,89.67-4.49,89.67-10.02Z"/>
        <path class="cls-6" d="M2150.05,87.46c122.47,0,221.75-3.59,221.75-8.01s-99.28-8.01-221.75-8.01-221.75,3.59-221.75,8.01,99.28,8.01,221.75,8.01Z"/>
        <path class="cls-6" d="M1763.56,138.22c149.34,0,270.4-2.99,270.4-6.68s-121.06-6.68-270.4-6.68-270.4,2.99-270.4,6.68,121.06,6.68,270.4,6.68Z"/>
        <path class="cls-6" d="M2373.19,140.89c0,4.43,45.75,8.01,102.18,8.01,7.79,0,15.36-.07,22.65-.2v-15.63c-7.29-.13-14.86-.2-22.65-.2-56.43,0-102.18,3.59-102.18,8.01Z"/>
        <path class="cls-6" d="M2238.33,242.41c0,4.43,74.07,8.01,165.44,8.01,35.03,0,67.5-.53,94.25-1.43v-13.17c-26.75-.9-59.21-1.43-94.25-1.43-91.37,0-165.44,3.59-165.44,8.01Z"/>
        <path class="cls-6" d="M2337.04,313.21c0,6.64,48.24,12.02,107.74,12.02,19.37,0,37.53-.57,53.23-1.57v-20.9c-15.71-1-33.86-1.57-53.23-1.57-59.51,0-107.74,5.38-107.74,12.02Z"/>
        <path class="cls-6" d="M1887.29,261.11c-298.3,0-540.11,4.78-540.11,10.69s241.82,10.69,540.11,10.69,540.11-4.78,540.11-10.69-241.82-10.69-540.11-10.69Z"/>
        <path class="cls-6" d="M1634.96,166.27c0,3.69,124.49,6.68,278.05,6.68s278.05-2.99,278.05-6.68-124.49-6.68-278.05-6.68-278.05,2.99-278.05,6.68Z"/>
        <path class="cls-6" d="M1725.92,45.39c.71,0,1.91-.04,3.52-.09-3.02.06-4.26.1-3.52.09Z"/>
        <path class="cls-6" d="M1729.44,45.29c26.15-.49,188.32-2.29,408.04,10.11,154.18,8.7,290.1,3.39,360.53-2.6v-12.25c-70.09-3.09-205.26-5.18-360.53-5.18-215.06,0-379.73,8.92-408.04,9.93Z"/>
      </g>
      <g>
        <path class="cls-6" d="M826.13,67.86c15.59-3.51,31.46-7.27,46.8-10.91,89.38-21.19,181.81-43.1,272.55-27.54,71.07,12.19,141.47,47.49,209.54,81.63,43.6,21.86,88.68,44.47,133.62,60.88,101.78,37.16,206.08,44.03,308.92,44.03,30.44,0,60.76-.6,90.84-1.2l609.62-12.12v-8.02l-609.66,12.12c-131.48,2.61-267.44,5.32-398.93-42.69-44.81-16.36-89.82-38.93-133.35-60.76-68.24-34.22-138.81-69.61-210.23-81.86-91.18-15.64-183.83,6.33-273.43,27.57-15.34,3.64-31.2,7.4-46.78,10.9C551.74,121.53,274.2,124.05,0,67.57v8.06c274.37,56.44,552.07,53.89,826.13-7.77Z"/>
        <path class="cls-6" d="M1691.22,100.09c41.42.11,84.25.22,126.27,3.39,40.63,3.07,81.88,9.1,121.77,14.94,48.88,7.15,99.43,14.55,149.3,16.55,10.4.42,20.82.6,31.26.6,44.15,0,88.53-3.33,131.72-6.58l246.48-18.53v-8.02l-246.64,18.54c-53.34,4.01-108.5,8.14-162.73,5.97-49.75-2-100.24-9.39-149.07-16.53-39.93-5.84-81.22-11.88-121.93-14.95-42.09-3.18-84.97-3.29-126.42-3.39-75.77-.19-154.13-.39-230.42-19.37-45.9-11.42-100.32-32.93-154.35-72.7h-11.37c57.61,44.87,116.22,68.47,165.19,80.65,76.55,19.04,155.04,19.24,230.95,19.44Z"/>
        <path class="cls-6" d="M1623.26,59.51c83.35,0,166.85-29.98,248.27-59.51h-22.58c-99.45,35.71-201.66,68.07-302.33,42.07-33.43-8.63-66.24-23.61-98.52-42.07h-14.28c36.66,22.08,74.02,40.14,112.24,50.01,25.67,6.63,51.43,9.5,77.2,9.5Z"/>
        <path class="cls-6" d="M836.71,267.91c74.82-17.81,152.18-36.22,228.3-26.17,46.91,6.2,93.99,23.33,139.52,39.9,24.98,9.09,50.81,18.49,76.35,26,104.91,30.83,212.63,32.12,316.81,33.36l900.33,10.77v-8.01l-900.31-10.77c-104.03-1.24-211.59-2.53-316.2-33.27-25.47-7.48-51.27-16.87-76.21-25.95-45.65-16.61-92.85-33.8-140.01-40.02-76.51-10.1-154.08,8.36-229.09,26.21-6.57,1.56-13.13,3.12-19.69,4.67C546.44,328.16,272.83,360.01,0,359.88v7.07h79.71c246.53-5.5,493.38-36.98,737.3-94.36,6.56-1.54,13.13-3.11,19.7-4.67Z"/>
        <path class="cls-6" d="M1006.54,172.35l9.8-1.8c49.96-9.18,101.63-18.67,152.26-10.8,34.97,5.44,70.01,19.28,103.89,32.66,19.21,7.59,39.08,15.43,58.76,21.68,81.6,25.92,165.83,26.35,240.14,26.72,23.82.12,47.65.18,71.52.18,284.12,0,571.09-8.58,855.13-25.51v-8.02c-307.88,18.35-619.2,26.89-926.63,25.33-74.15-.38-158.2-.8-239.47-26.62-19.6-6.22-39.42-14.05-58.6-21.63-34.01-13.43-69.17-27.32-104.4-32.79-51-7.93-102.85,1.59-152.99,10.8l-9.79,1.79C672.57,225.18,334.94,236.08,0,197.07v8.03c335.07,39,672.83,28.09,1006.54-32.74Z"/>
        <path class="cls-6" d="M1410.68,218.88c3.78,1.69,8.23,3.41,12.6,3.41,5.73,0,10.1-2.95,13.38-9.03l1.9-3.53-2.23-2.73c-60.29-74.05-135.71-121.77-224.17-141.82-37.62-8.53-77.62-12.51-125.86-12.51-37.42,0-74.97,2.4-111.28,4.73-37.46,2.4-76.2,4.88-112.11,31.56l-10.34,7.68,11.08.06c183.87,1.08,367.92,42.18,547.02,122.17ZM975.16,65.41c36.28-2.32,73.79-4.73,111.14-4.73,48.07,0,87.91,3.96,125.37,12.45,86.59,19.64,160.54,65.9,219.88,137.54-2.19,2.42-4.92,3.6-8.28,3.6-3.94,0-8.1-1.62-11.65-3.2-175.46-78.37-355.65-119.47-535.8-122.25,32.04-19.1,66.19-21.29,99.34-23.41Z"/>
        <path class="cls-6" d="M1324.54,139.55c-46.18-43.72-97.8-67.78-149.28-69.56l-1.82-.06-.28,3.45c-.59,7.2,2.47,13.21,8.19,16.06l149.31,74.59.72-3.12c1.71-7.43-.98-15.81-6.84-21.35ZM1182.4,81.68c-1.26-.63-3.02-1.87-4.12-3.54,49.84,2.6,99.71,26.28,144.42,68.61,1.71,1.62,3.85,4.48,4.67,7.36l-144.97-72.42Z"/>
        <path class="cls-6" d="M1046.52,285.14c-126.78-28.03-255.14,17.08-379.26,60.7-20.05,7.05-40.45,14.21-60.92,21.1h23.83c12.7-4.39,25.34-8.82,37.84-13.22,123.82-43.52,251.87-88.52,378.03-60.62,60.16,13.3,119.95,43.35,177.78,72.41.95.48,1.9.96,2.85,1.43h16.53c-6.13-3.06-12.24-6.13-18.33-9.19-57.97-29.13-117.9-59.25-178.36-72.62Z"/>
        <path class="cls-6" d="M754.12,366.94h17.84c103.9-45.69,211.96-45.78,316.02,0h17.69c-115.42-56.46-236.32-56.39-351.55,0Z"/>
        <path class="cls-6" d="M841.89,234.66c12.59-3.71,25.21-7.56,37.86-11.41,103.47-31.53,210.47-64.13,313.69-25.73,28.09,10.45,56.05,26.3,83.1,41.63,25.27,14.32,51.39,29.13,77.65,39.57,51.8,20.59,104.54,24.81,163.17,27.89,99.42,5.22,199.16,7.82,299.08,7.82,227.31,0,455.4-13.53,681.58-40.39v-8.04c-325.56,38.68-655.02,49.69-980.55,32.6-58.42-3.07-110.97-7.27-162.44-27.73-26.09-10.37-52.13-25.13-77.31-39.41-27.14-15.38-55.2-31.29-83.49-41.81-103.94-38.66-211.31-5.95-315.14,25.69-12.64,3.85-25.25,7.69-37.84,11.41C562.75,308.87,280.34,326.13,0,278.43v8.04c280.56,47.69,563.17,30.39,841.89-51.81Z"/>
      </g>
    </g>
    <g>
      <rect class="cls-4" y="1122.02" width="2498.02" height="366.94"/>
      <g>
        <g>
          <ellipse class="cls-2" cx="1647.12" cy="1247.27" rx="585.87" ry="9.51"/>
          <path class="cls-2" d="M2082.53,1310.67c0,6.42,98.77,11.62,220.62,11.62,84.44,0,157.79-2.5,194.87-6.17v-10.91c-37.08-3.67-110.43-6.17-194.87-6.17-121.84,0-220.62,5.2-220.62,11.62Z"/>
          <path class="cls-2" d="M1639.27,1367.74c0,4.09,134.73,7.4,300.93,7.4s300.93-3.31,300.93-7.4-134.73-7.4-300.93-7.4-300.93,3.31-300.93,7.4Z"/>
          <ellipse class="cls-2" cx="1818.2" cy="1310.67" rx="176.9" ry="13.74"/>
          <g>
            <ellipse class="cls-2" cx="345.93" cy="1247.27" rx="198.11" ry="9.51"/>
            <path class="cls-2" d="M250.7,1310.67c0-6.42-67.53-11.62-150.84-11.62-38.3,0-73.25,1.1-99.85,2.92v17.42c26.6,1.81,61.55,2.91,99.85,2.91,83.31,0,150.84-5.2,150.84-11.62Z"/>
            <path class="cls-2" d="M553.77,1367.74c0-4.09-92.12-7.4-205.76-7.4s-205.76,3.31-205.76,7.4,92.12,7.4,205.76,7.4,205.76-3.31,205.76-7.4Z"/>
            <ellipse class="cls-2" cx="431.43" cy="1310.67" rx="120.95" ry="13.74"/>
            <path class="cls-2" d="M125.57,1212.39c0-2.33-38.9-4.23-86.89-4.23-13.9,0-27.03.16-38.68.44v7.57c11.65.28,24.78.44,38.68.44,47.99,0,86.89-1.89,86.89-4.23Z"/>
            <path class="cls-2" d="M670.55,1284.25c62.96,0,114-3.78,114-8.45s-51.04-8.45-114-8.45-114,3.79-114,8.45,51.04,8.45,114,8.45Z"/>
            <path class="cls-2" d="M418.22,1167.43c0-7.75-117.64-14.03-262.76-14.03-58.18,0-111.93,1.01-155.46,2.72v22.61c43.54,1.71,97.29,2.72,155.46,2.72,145.12,0,262.76-6.28,262.76-14.03Z"/>
            <path class="cls-2" d="M295.18,1399.85c0-7.75-100.84-14.03-225.22-14.03-24.43,0-47.94.24-69.96.69v26.67c22.02.45,45.54.69,69.96.69,124.39,0,225.22-6.28,225.22-14.03Z"/>
            <path class="cls-2" d="M567.33,1397.84c-123.81,0-224.18,4.49-224.18,10.02s100.37,10.02,224.18,10.02,224.18-4.49,224.18-10.02-100.37-10.02-224.18-10.02Z"/>
          </g>
          <path class="cls-2" d="M2265.53,1212.39c0,2.33,56.9,4.23,127.08,4.23,43.88,0,82.57-.74,105.4-1.86v-4.72c-22.83-1.13-61.52-1.86-105.4-1.86-70.19,0-127.08,1.89-127.08,4.23Z"/>
          <path class="cls-2" d="M1301.73,1275.8c0,4.67,74.65,8.45,166.73,8.45s166.73-3.78,166.73-8.45-74.65-8.45-166.73-8.45-166.73,3.79-166.73,8.45Z"/>
          <path class="cls-2" d="M1572.67,1167.43c0,7.75,231.34,14.03,516.72,14.03,166.23,0,314.11-2.13,408.63-5.44v-17.17c-94.52-3.31-242.39-5.44-408.63-5.44-285.38,0-516.72,6.28-516.72,14.03Z"/>
          <path class="cls-2" d="M2315.67,1399.85c0,7.75,80.72,14.03,180.29,14.03.69,0,1.36,0,2.05,0v-28.04c-.69,0-1.36,0-2.05,0-99.57,0-180.29,6.28-180.29,14.03Z"/>
          <path class="cls-2" d="M1291.57,1407.86c0,5.53,226.04,10.02,504.88,10.02s504.88-4.49,504.88-10.02-226.04-10.02-504.88-10.02-504.88,4.49-504.88,10.02Z"/>
        </g>
        <g>
          <path class="cls-2" d="M727.88,1339.21c26.37,8.84,53.27,18.89,79.29,28.61,82.17,30.69,166.44,62.17,250.4,62.17,27.34,0,54.65-3.34,81.83-11.13,27.72-7.94,55.41-20.61,82.19-32.86,24.14-11.04,49.1-22.45,73.94-30.34,60.34-19.15,122.51-18.46,182.64-17.78l1019.84,11.4v-8.01l-1019.82-11.4c-60.31-.68-122.66-1.37-183.35,17.89-24.99,7.93-50.02,19.38-74.23,30.45-26.7,12.21-54.3,24.83-81.84,32.73-69.4,19.89-139.71,10.51-209.43-9.3-13.24-2.25-26.14-6.1-38.54-11.91-27.79-9.21-55.44-19.54-82.85-29.78-26.03-9.72-52.95-19.78-79.36-28.63C488.84,1250.92,246.9,1254.85,0,1271.71v8.02c246.71-16.84,488.46-20.79,727.88,59.48Z"/>
          <path class="cls-2" d="M767.31,1216.12c10.73,12.44,18.7,32.38,26.41,51.65,2.89,7.23,5.88,14.71,9,21.75,23.62,53.4,54,84.22,88.1,100.2,12.82,4.25,25.67,8.26,38.54,11.91,10.23,1.74,20.65,2.54,31.23,2.54,42.16,0,86.54-12.44,128.88-26.54,184.41-61.39,367.45-94.03,544.02-97.02,90.2-1.51,182.24,4.58,271.24,10.5,195.68,13,397.84,26.4,593.3-40.58v-8.15c-195.25,67.12-397.44,53.72-593.15,40.73-89.05-5.92-181.14-12.02-271.42-10.5-176.8,2.99-360.06,35.67-544.7,97.14-103.35,34.41-218.97,59.01-282.85-85.41-3.05-6.89-6-14.29-8.87-21.45-7.94-19.86-16.16-40.4-27.56-53.63-18.67-21.66-42.11-19.42-60.95-17.62L0,1259.26v8.03l708.72-67.64c18.27-1.74,41.01-3.91,58.59,16.48Z"/>
          <path class="cls-2" d="M929.35,1401.63c-12.87-3.66-25.72-7.66-38.54-11.91,12.4,5.81,25.3,9.66,38.54,11.91Z"/>
          <path class="cls-2" d="M797.7,1202.18c17.62,18.69,33.4,44.35,48.65,69.17,16.01,26.06,32.57,53,51.44,72.25,24.85,25.36,54.4,38.07,88.3,38.07,20.76,0,43.17-4.77,67.12-14.31,21.83-8.7,43.66-20.37,64.77-31.65,28.71-15.35,58.39-31.22,88.28-39.68,26.76-7.58,54.38-9.4,81.09-11.17,32.55-2.16,66.21-4.38,98.7-17.01l-.83-7.86c-32.16,12.5-65.64,14.72-98.02,16.86-26.82,1.78-54.56,3.61-81.55,11.25-30.15,8.54-59.96,24.47-88.79,39.89-21.05,11.25-42.81,22.89-64.5,31.53-62.08,24.74-113.43,17-152.62-22.98-18.47-18.85-34.86-45.51-50.7-71.29-15.41-25.07-31.34-50.99-49.33-70.07-53.57-56.82-119.99-48.01-173.35-40.94L0,1237.33v8.04l626.65-83.13c52.82-7,118.55-15.72,171.05,39.96Z"/>
          <path class="cls-2" d="M1111.53,1260.42c-14.9,0-30.19,2.93-44.98,5.77-16.28,3.13-33.12,6.37-49.51,5.68-36.98-1.52-73.28-22.99-108.38-43.76-32.34-19.13-65.78-38.91-99.98-43.41l-7.16-.94,55.32,78.13c19.65,27.75,39.96,56.44,63.79,71.39,18.25,11.45,37.34,13.76,51.94,14.5,3.53.18,7.06.27,10.59.27h0c58.1,0,116.73-24.36,169.54-70.44l5.21-4.55-5.52-2.96c-12.14-6.51-25.51-9.67-40.88-9.67ZM972.68,1339.76c-14.32-.72-33.02-2.97-50.76-14.1-23.19-14.55-43.24-42.86-62.62-70.23l-43.57-61.53c31.2,6.09,61.92,24.25,91.7,41.87,35.38,20.92,71.96,42.57,109.52,44.11,16.64.68,33.61-2.57,50.01-5.72,14.69-2.82,29.87-5.73,44.56-5.73,12.57,0,23.74,2.16,33.96,6.57-54.03,45.25-113.83,67.74-172.8,64.76Z"/>
          <path class="cls-2" d="M965.19,1281.87l-92.31-46.59,3.01,8.75c17.51,50.85,49.08,82.43,82.38,82.44h0c11,0,21.6-3.54,31.52-10.52l2.37-1.67-1.3-4.16c-5.24-16.76-15.56-23.14-25.68-28.25ZM958.29,1318.46h0c-29.44,0-58.48-27.15-75.59-69.94l81.45,41.11c8.34,4.21,16.8,9.28,21.65,20.53-8.7,5.51-17.94,8.3-27.5,8.3Z"/>
          <path class="cls-2" d="M1037.12,1204.29c42.19-2.63,84.93-11.02,126.25-19.14,57.68-11.33,117.32-23.03,176.11-19.15,43.47,2.88,87.37,14.35,129.82,25.44,16.98,4.44,34.53,9.02,51.83,13,91.44,21.03,184.08,27.05,276.12,27.05,62.61,0,124.96-2.79,186.45-5.54l514.31-23v-8.02l-514.41,23c-151.73,6.79-308.63,13.81-461.98-21.46-17.26-3.97-34.8-8.55-51.76-12.98-42.56-11.12-86.56-22.62-130.24-25.5-59.09-3.91-118.87,7.83-176.68,19.18-41.25,8.1-83.91,16.48-125.96,19.1-98.39,6.1-198.02-19.4-292.58-74.26h-14.09c98.82,60.41,203.51,88.7,306.8,82.27Z"/>
          <path class="cls-2" d="M1168.66,1122.02h-29.89c-64.21,15.03-129.53,15.09-193.66,0h-29.66c41.73,12.87,84.1,19.34,126.5,19.34s84.88-6.5,126.71-19.34Z"/>
          <path class="cls-2" d="M1479.01,1157.39c10.08,0,20.17-.8,30.23-2.69,26.13-4.9,51.73-17.18,76.41-32.68h-14.01c-20.46,11.68-41.48,20.7-62.8,24.7-39.14,7.34-78.87-1.96-117.3-10.96l-58.65-13.74h-34.44l92.59,21.7c28.83,6.75,58.38,13.68,87.97,13.68Z"/>
        </g>
      </g>
    </g>
    <g>
      <rect class="cls-1" x="0" y="747.34" width="2498.02" height="366.94"/>
      <g>
        <g>
          <path class="cls-5" d="M2379.42,1023.46c0,4.43,41.23,8.01,92.09,8.01,9.22,0,18.11-.12,26.51-.34v-15.35c-8.4-.22-17.29-.34-26.51-.34-50.86,0-92.09,3.59-92.09,8.01Z"/>
          <path class="cls-5" d="M2123.71,941.98c0,3.69,97.27,6.68,217.26,6.68,61.78,0,117.48-.79,157.04-2.07v-9.22c-39.56-1.27-95.27-2.07-157.04-2.07-119.99,0-217.26,2.99-217.26,6.68Z"/>
          <path class="cls-5" d="M1812.57,995.41c0,5.16,129.29,9.35,288.79,9.35s288.79-4.19,288.79-9.35-129.29-9.35-288.79-9.35-288.79,4.19-288.79,9.35Z"/>
          <path class="cls-5" d="M2005.69,863.17c0,4.43,114.48,8.01,255.71,8.01,106.86,0,198.39-2.05,236.62-4.97v-6.09c-38.23-2.92-129.76-4.97-236.62-4.97-141.22,0-255.71,3.59-255.71,8.01Z"/>
          <path class="cls-5" d="M1753.56,919.27c193.56,0,350.48-4.19,350.48-9.35s-156.91-9.35-350.48-9.35-350.48,4.19-350.48,9.35,156.91,9.35,350.48,9.35Z"/>
          <path class="cls-5" d="M2248.88,809.74c0,5.9,70.85,10.69,158.25,10.69,33.83,0,65.16-.72,90.88-1.94v-17.49c-25.72-1.22-57.05-1.94-90.88-1.94-87.4,0-158.25,4.78-158.25,10.69Z"/>
          <ellipse class="cls-5" cx="1876.95" cy="800.39" rx="316.5" ry="17.36"/>
          <path class="cls-5" d="M.4,900.57v18.7c193.35,0,350.02-4.19,350.02-9.35s-156.67-9.34-350.02-9.35Z"/>
          <path class="cls-5" d="M.4,784.4v31.97c113.25-2.64,192.66-8.81,192.66-15.99s-79.41-13.34-192.66-15.99Z"/>
        </g>
        <g>
          <path class="cls-5" d="M1151.1,1033.66c-268.22,0-536.1.42-802.61,1.26-112.23.35-228.73.73-348.1,1.92v8.01c119.38-1.19,235.87-1.56,348.11-1.92,713.14-2.25,1435.91-1.48,2149.51,2.28v-8.01c-446.93-2.35-897.39-3.54-1346.91-3.54Z"/>
          <path class="cls-5" d="M2239.84,952.89c-190.01,0-380.12,8.97-568.76,26.9-27.06,2.57-54.59,5.37-81.21,8.08-168.05,17.09-341.81,34.78-511.45,6.7-22.32-3.69-44.99-8.25-66.91-12.66-47.57-9.57-96.77-19.46-145.61-21.18-65.45-2.29-131.51,10.02-195.39,21.93-28.51,5.32-57.98,10.81-87,14.93-153.17,21.75-309.78,7.48-461.23-6.33-21.77-1.98-43.52-3.97-65.27-5.85-18.85-1.63-37.73-3.16-56.62-4.64v8.02c18.78,1.47,37.56,2.99,56.31,4.61,21.74,1.88,43.49,3.86,65.25,5.85,151.66,13.82,308.48,28.12,462.06,6.31,29.09-4.13,58.61-9.64,87.16-14.96,63.69-11.88,129.54-24.15,194.6-21.87,48.54,1.71,97.59,11.57,145.02,21.11,21.95,4.42,44.65,8.98,67.03,12.69,170.11,28.15,344.12,10.45,512.4-6.67,26.62-2.71,54.15-5.51,81.19-8.08,274.03-26.05,551.12-33.09,826.59-21.26v-8.06c-85.95-3.69-172.05-5.58-258.18-5.58Z"/>
          <path class="cls-5" d="M1774.19,859.4c-87.11,4.32-177.19,8.78-264.58-13.52-25.76-6.57-51.74-15.61-76.87-24.36-42.61-14.82-86.67-30.15-131.13-33.99-70.52-6.09-141.13,16.7-209.41,38.73-70.63,22.8-143.68,46.37-216.17,37.6-44.12-5.33-88.62-22.67-131.66-39.44-51.41-20.03-104.11-40.57-156.7-40.57-18.94,0-37.86,2.66-56.7,8.97-40.79,13.66-78.21,43.75-114.4,72.85-26.35,21.19-53.59,43.1-81.91,58.48-77.85,42.28-165.47,36.12-242.77,30.69L.4,948.41v8.02l91.25,6.42c77.8,5.47,165.99,11.67,244.85-31.16,28.69-15.58,56.11-37.63,82.62-58.95,35.87-28.85,72.95-58.67,113.03-72.09,69.89-23.4,141.56,4.52,210.87,31.53,43.26,16.85,87.99,34.29,132.58,39.67,73.28,8.85,146.72-14.84,217.73-37.76,67.93-21.92,138.17-44.57,207.97-38.57,44,3.8,87.83,19.05,130.22,33.8,25.2,8.77,51.26,17.84,77.18,24.45,87.93,22.44,178.28,17.96,265.66,13.63l723.65-35.86v-8.02l-723.83,35.86Z"/>
          <path class="cls-5" d="M912.95,903.07l.3-5.59c-48.71.91-97.25-9.04-143.96-29.53-15.21-6.66-30.69-14.62-45.67-22.31-39.98-20.53-81.31-41.76-123.12-41.76-7.95,0-15.82.77-23.4,2.3-32.61,6.57-63.73,28.34-91.19,47.56-48.99,34.27-104.52,73.11-152.96,123.94l-6.19,6.5,7.55.78c46.43,4.81,100.39,9.94,153.12,9.94,40.44,0,76.74-2.92,110.97-8.94,24.61-4.32,49.46-10.52,73.49-16.52,37.99-9.48,77.27-19.28,116.29-21.81,9.16-.59,19.06-.86,32.09-.86,5.17,0,10.34.04,15.52.08,5.18.04,10.36.08,15.53.08,33.73,0,69.55-1.38,104.09-17.85l2.28-1.09-.46-3.51c-1.26-9.49-5.41-16.56-12.21-21.12-10.66.92-21.33.96-32.06-.3ZM951.28,922.62c-33.05,15.03-67.48,16.31-99.97,16.31-5.17,0-10.34-.04-15.51-.08-5.18-.04-10.36-.08-15.54-.08-13.11,0-23.08.27-32.32.86-39.35,2.55-78.8,12.39-116.94,21.91-23.97,5.98-48.75,12.16-73.23,16.46-34.02,5.98-70.11,8.88-110.34,8.88-49.7,0-100.54-4.58-145.11-9.14,46.55-47.28,99.19-84.1,145.87-116.75,28.44-19.89,57.84-40.46,89.64-46.87,7.34-1.48,14.97-2.23,22.68-2.23,40.91,0,81.81,21.01,121.37,41.33,15.03,7.72,30.58,15.7,45.9,22.42,45.31,19.86,92.25,29.93,139.53,29.93,3.84,0,7.68-.07,11.52-.2,12.3-.4,28.4,2.07,32.46,17.23Z"/>
          <path class="cls-5" d="M739.43,883.58c-40.52-12.26-82.11-18.47-123.62-18.47h0c-25.96,0-52.13,2.45-77.78,7.28-51.42,9.69-83.77,36.21-96.14,78.81l-1.24,4.29,3.02,1.19c18.86,7.39,39.35,10.83,64.48,10.83,14.47,0,28.82-1.1,45.9-2.75,60.76-5.87,122.18-14.66,182.57-26.12,16.22-3.08,25.71-13.64,25.39-28.23-.29-12.97-8.31-22.5-22.58-26.82ZM735.94,930.69c-60.28,11.45-121.59,20.22-182.24,26.08-16.98,1.64-31.23,2.73-45.56,2.73-23.28,0-42.45-2.99-60-9.39,12.5-37.32,42.94-60.79,90.55-69.76,25.43-4.79,51.38-7.22,77.11-7.22,41.16,0,82.39,6.16,122.56,18.31,6.71,2.03,18.01,7.23,18.28,19.23.34,15.24-17.18,19.35-20.7,20.01Z"/>
          <path class="cls-5" d="M660.85,897.46c-5.06-5.93-11.61-6.5-17.89-6.58-1.56-.02-3.12-.03-4.68-.03h0c-42.24,0-84.56,6.99-125.78,20.79-1.52.51-4.69,1.57-6.08,5.73-.79,2.36-.82,5.22-.09,8.49,2.73,12.25,20.55,14.74,41.81,16.56,3.76.32,7,.6,8.93.96,7.27,1.37,14.71,2.06,22.11,2.06,28.41,0,56.68-10.1,81.75-29.21l1.57-1.19-.68-16.47-.95-1.11ZM579.17,937.43c-7.17,0-14.39-.67-21.44-2-2.12-.4-5.29-.67-9.3-1.01-9.63-.82-35.22-3-37.02-11.08-.39-1.73-.22-2.31-.2-2.37.17-.51,1-1.01,2.46-1.5,42.34-14.17,85.89-21.1,129.25-20.57,5.12.06,10.02.43,13.68,3.88l.31,7.5c-23.93,17.77-50.77,27.15-77.74,27.15Z"/>
          <path class="cls-5" d="M1091.28,869.5c-36.8,7.92-68.64,25.83-94.95,53.64l-2.76,2.92,2.53,3.35c13.29,17.57,31.55,18.74,49.22,19.87,2.89.18,5.75.37,8.57.62,23.61,2.15,47.09,11.21,69.8,19.97,6.97,2.69,14.19,5.47,21.3,8.02,54.66,19.55,114.13,29.05,181.81,29.05,38.11,0,79.76-3.04,127.34-9.29,38.13-5.01,76.79-11.57,114.19-17.91,63.55-10.78,129.27-21.93,194.19-25.77l2.31-.13.25-3.43c.42-5.69-.63-10.9-3.11-15.46-5.07-9.32-15.3-13.86-23.18-14.99-11.88-1.72-24.29-2.55-37.96-2.55-22.61,0-44.4,2.21-70.54,5.09l-8.6.95c-47.3,5.24-96.2,10.66-144.2,10.66-36.31,0-68.67-3.07-98.93-9.38-30.67-6.4-61.49-16.71-91.28-26.68-32.91-11.01-66.93-22.39-101.01-28.61-16.93-3.09-33.52-4.66-49.33-4.66h0c-8.05,0-15.88.44-23.55,1.23-6.83,2.93-13.59,6.35-20.27,10.33l-1.83-6.83ZM1136.94,872.78c15.59,0,31.97,1.55,48.68,4.59,33.82,6.18,67.71,17.51,100.49,28.48,29.9,10,60.82,20.35,91.71,26.79,30.51,6.37,63.12,9.46,99.67,9.46,48.19,0,97.2-5.43,144.59-10.68l8.6-.95c26.03-2.87,47.72-5.07,70.15-5.07,13.49,0,25.74.82,37.45,2.51,6.49.94,15.51,4.66,19.54,12.07,1.04,1.92,1.67,3.94,1.9,6.12-64.28,3.99-129.18,15-191.99,25.65-37.36,6.34-75.99,12.89-114.05,17.89-47.42,6.23-88.92,9.26-126.87,9.26-67.26,0-126.32-9.43-180.56-28.83-7.07-2.53-14.26-5.3-21.21-7.99-22.96-8.86-46.69-18.02-70.82-20.21-2.85-.26-5.75-.44-8.67-.63-15.5-.99-31.48-2.01-43.18-14.62,35.32-35.75,80.57-53.86,134.57-53.86Z"/>
          <path class="cls-5" d="M1529.38,872c-15.68-5.19-31.56-11.07-46.92-16.77-30.4-11.28-61.84-22.94-93.41-29.75-25.7-5.55-51.49-7.94-77.31-7.94-82.3,0-164.88,24.27-245.37,47.93-19.36,5.69-39.38,11.58-59,17-31.69,8.77-62.72,16.33-93.99,12.61l-.13,2.4c1.82-.03,3.63-.05,5.45-.11.84-.03,1.7-.04,2.56-.04,9.87,0,17.81,2.07,23.75,6.05,21.05-1.82,42.05-7.14,63.33-13.02,19.65-5.43,39.69-11.32,59.06-17.02,11.03-3.24,22.11-6.49,33.22-9.7,23.95-12.39,48.73-18.3,73.86-19.71,71.11-16.83,142.94-25.82,213.8-10.53,31.31,6.76,62.61,18.37,92.89,29.6,15.39,5.71,31.31,11.61,47.06,16.82,89.92,29.72,182.08,39.65,273.93,29.5l-.4-7.99c-91.33,10.09-182.97.22-272.38-29.33Z"/>
          <path class="cls-5" d="M918.69,897.37c-1.82.06-3.63.08-5.45.11l-.3,5.59c10.73,1.27,21.4,1.23,32.06.3-5.94-3.98-13.88-6.05-23.75-6.05-.87,0-1.72.02-2.56.04Z"/>
          <path class="cls-5" d="M1091.12,868.89l.16.61c7.18-1.55,14.54-2.72,22.1-3.5,62.22-26.74,129.89-11.74,194.34,9.21,9.09,2.95,18.19,6.01,27.31,9.08,62.21,20.94,126.54,42.59,190.34,30.02l-.7-7.95c-62.85,12.38-126.7-9.11-188.46-29.89-9.13-3.07-18.25-6.14-27.35-9.1-40.09-13.03-81.44-23.78-122.07-23.78-4.11,0-8.22.11-12.31.34-24.73,5.85-49.37,12.65-73.86,19.71-3.18,1.64-6.35,3.37-9.49,5.25Z"/>
          <path class="cls-5" d="M1093.11,876.34c6.68-3.99,13.45-7.4,20.27-10.33-7.56.78-14.92,1.95-22.1,3.5l1.83,6.83Z"/>
          <path class="cls-5" d="M1174.47,843.94c-25.13,1.41-49.91,7.32-73.86,19.71,24.48-7.06,49.13-13.85,73.86-19.71Z"/>
          <path class="cls-5" d="M1098.88,931.84c84.05,28.08,174.06,54.07,262.77,54.07,46.72,0,89.18-6.99,129.78-21.38l16.31-5.78-16.71-2.11c-95.66-12.1-191.66-34.08-285.35-65.35-21.5-7.18-44.32-14.18-66.1-14.18h0c-23.8,0-42.74,8.39-57.87,25.66l-.75.86-.23,1.37c-.7,4.24-.25,8.48,1.31,12.25,4.01,9.68,13.89,13.63,16.82,14.61ZM1139.58,885.12h0c21.23,0,43.72,6.91,64.93,13.99,88.22,29.44,178.49,50.68,268.6,63.19-35.03,10.48-71.68,15.59-111.47,15.59-88.19,0-177.84-25.89-261.6-53.87-6.26-2.09-11.53-6.41-13.43-11-.64-1.56-.91-3.14-.81-4.81,14.03-15.53,31.63-23.08,53.78-23.08Z"/>
          <path class="cls-5" d="M1216.74,943.61c9.75,3.32,18.95,6.45,24.74,10.13,17.71,11.26,38.67,13.2,57.17,5.26l1.58-.68.32-2.4c.94-7.13-1.85-15.08-6.78-19.32-4.09-3.51-8.74-4.26-12.85-4.92l-112.98-18.22,7.07,8.56c8.48,10.25,25.39,16.01,41.74,21.58ZM1280.33,939.65c3.76.61,7.64,1.23,10.75,3.91,2.05,1.76,3.93,5.03,4.23,8.5-16.84,6.56-35.73,4.49-51.74-5.68-6.22-3.96-15.66-7.17-25.64-10.58-9.02-3.07-18.75-6.39-26.72-10.51l89.12,14.37Z"/>
        </g>
      </g>
    </g>
    <g>
      <rect class="cls-7" x="0" y="1500.69" width="2498.02" height="366.94"/>
      <g>
        <ellipse class="cls-6" cx="2127.06" cy="1788.18" rx="221.75" ry="8.01"/>
        <path class="cls-6" d="M1740.57,1742.77c149.34,0,270.4-2.99,270.4-6.68s-121.06-6.68-270.4-6.68-270.4,2.99-270.4,6.68,121.06,6.68,270.4,6.68Z"/>
        <path class="cls-6" d="M2350.2,1726.74c0,4.43,45.75,8.01,102.18,8.01,16.41,0,31.9-.3,45.63-.84v-14.34c-13.74-.54-29.23-.84-45.63-.84-56.43,0-102.18,3.59-102.18,8.01Z"/>
        <path class="cls-6" d="M2215.34,1625.22c0,4.43,74.07,8.01,165.44,8.01,45.81,0,87.27-.9,117.23-2.36v-11.31c-29.96-1.46-71.42-2.36-117.23-2.36-91.37,0-165.44,3.59-165.44,8.01Z"/>
        <path class="cls-6" d="M2314.05,1554.42c0,6.64,48.24,12.02,107.74,12.02,29.77,0,56.72-1.35,76.22-3.52v-16.99c-19.5-2.18-46.45-3.52-76.22-3.52-59.51,0-107.74,5.38-107.74,12.02Z"/>
        <path class="cls-6" d="M2175.03,1606.52c126.69,0,229.39-4.78,229.39-10.69s-102.7-10.69-229.39-10.69-229.39,4.78-229.39,10.69,102.7,10.69,229.39,10.69Z"/>
        <path class="cls-6" d="M2168.08,1701.36c0-3.69-124.49-6.68-278.05-6.68s-278.05,2.99-278.05,6.68,124.49,6.68,278.05,6.68,278.05-2.99,278.05-6.68Z"/>
        <path class="cls-6" d="M2346.72,1822.24c0,5.53,40.15,10.02,89.67,10.02,23.87,0,45.55-1.04,61.62-2.74v-14.55c-16.07-1.7-37.75-2.74-61.62-2.74-49.52,0-89.67,4.49-89.67,10.02Z"/>
        <ellipse class="cls-6" cx="347.97" cy="1788.18" rx="221.75" ry="8.01"/>
        <path class="cls-6" d="M734.46,1729.41c-149.34,0-270.4,2.99-270.4,6.68s121.06,6.68,270.4,6.68,270.4-2.99,270.4-6.68-121.06-6.68-270.4-6.68Z"/>
        <path class="cls-6" d="M124.83,1726.74c0-4.43-45.75-8.01-102.18-8.01-7.79,0-15.36.07-22.65.2v15.63c7.29.13,14.86.2,22.65.2,56.43,0,102.18-3.59,102.18-8.01Z"/>
        <path class="cls-6" d="M259.69,1625.22c0-4.43-74.07-8.01-165.44-8.01-35.03,0-67.5.53-94.25,1.43v13.17c26.75.9,59.21,1.43,94.25,1.43,91.37,0,165.44-3.59,165.44-8.01Z"/>
        <path class="cls-6" d="M160.98,1554.42c0-6.64-48.24-12.02-107.74-12.02-19.37,0-37.53.57-53.23,1.57v20.9c15.71,1,33.86,1.57,53.23,1.57,59.51,0,107.74-5.38,107.74-12.02Z"/>
        <path class="cls-6" d="M610.73,1606.52c298.3,0,540.11-4.78,540.11-10.69s-241.82-10.69-540.11-10.69-540.11,4.78-540.11,10.69,241.82,10.69,540.11,10.69Z"/>
        <path class="cls-6" d="M863.06,1701.36c0-3.69-124.49-6.68-278.05-6.68s-278.05,2.99-278.05,6.68,124.49,6.68,278.05,6.68,278.05-2.99,278.05-6.68Z"/>
        <path class="cls-6" d="M772.1,1822.24c-.71,0-1.91.04-3.52.09,3.02-.06,4.26-.1,3.52-.09Z"/>
        <path class="cls-6" d="M768.57,1822.34c-26.15.49-188.32,2.29-408.04-10.11-154.18-8.7-290.1-3.39-360.53,2.6v12.25c70.09,3.09,205.26,5.18,360.53,5.18,215.06,0,379.73-8.92,408.04-9.93Z"/>
      </g>
      <g>
        <path class="cls-6" d="M1671.89,1799.77c-15.59,3.51-31.46,7.27-46.8,10.91-89.38,21.19-181.81,43.1-272.55,27.54-71.07-12.19-141.47-47.49-209.54-81.63-43.6-21.86-88.68-44.47-133.62-60.88-101.78-37.16-206.08-44.03-308.92-44.03-30.44,0-60.76.6-90.84,1.2L0,1664.99v8.02l609.66-12.12c131.48-2.61,267.44-5.32,398.93,42.69,44.81,16.36,89.82,38.93,133.35,60.76,68.24,34.22,138.81,69.61,210.23,81.86,91.18,15.64,183.83-6.33,273.43-27.57,15.34-3.64,31.2-7.4,46.78-10.9,273.9-61.63,551.44-64.15,825.64-7.67v-8.06c-274.37-56.44-552.07-53.89-826.13,7.77Z"/>
        <path class="cls-6" d="M806.8,1767.55c-41.42-.11-84.25-.22-126.27-3.39-40.63-3.07-81.88-9.1-121.77-14.94-48.88-7.15-99.43-14.55-149.3-16.55-10.4-.42-20.82-.6-31.26-.6-44.15,0-88.53,3.33-131.72,6.58L0,1757.17v8.02l246.64-18.54c53.34-4.01,108.5-8.14,162.73-5.97,49.75,2,100.24,9.39,149.07,16.53,39.93,5.84,81.22,11.88,121.93,14.95,42.09,3.18,84.97,3.29,126.42,3.39,75.77.19,154.13.39,230.42,19.37,45.9,11.42,100.32,32.93,154.35,72.7h11.37c-57.61-44.87-116.22-68.47-165.19-80.65-76.55-19.04-155.04-19.24-230.95-19.44Z"/>
        <path class="cls-6" d="M874.76,1808.13c-83.35,0-166.85,29.98-248.27,59.51h22.58c99.45-35.71,201.66-68.07,302.33-42.07,33.43,8.63,66.24,23.61,98.52,42.07h14.28c-36.66-22.08-74.03-40.14-112.24-50.01-25.67-6.63-51.43-9.5-77.2-9.5Z"/>
        <path class="cls-6" d="M1661.31,1599.72c-74.82,17.81-152.18,36.22-228.3,26.17-46.91-6.2-93.99-23.33-139.52-39.9-24.98-9.09-50.81-18.49-76.35-26-104.91-30.83-212.63-32.12-316.81-33.36L0,1515.86v8.01l900.31,10.77c104.03,1.24,211.59,2.53,316.2,33.27,25.47,7.48,51.27,16.87,76.21,25.95,45.65,16.61,92.85,33.8,140.01,40.02,76.51,10.1,154.08-8.36,229.09-26.21,6.57-1.56,13.13-3.12,19.69-4.67,270.06-63.53,543.67-95.39,816.5-95.25v-7.07h-79.71c-246.53,5.5-493.38,36.98-737.3,94.36-6.56,1.54-13.13,3.11-19.7,4.67Z"/>
        <path class="cls-6" d="M1491.48,1695.28l-9.8,1.8c-49.96,9.18-101.63,18.67-152.26,10.8-34.97-5.44-70.01-19.28-103.89-32.66-19.21-7.59-39.08-15.43-58.76-21.68-81.6-25.92-165.83-26.35-240.14-26.72-23.82-.12-47.65-.18-71.52-.18-284.12,0-571.09,8.58-855.13,25.51v8.02c307.88-18.35,619.2-26.89,926.63-25.33,74.15.38,158.2.8,239.47,26.62,19.6,6.22,39.42,14.05,58.6,21.63,34.01,13.43,69.17,27.32,104.4,32.79,51,7.93,102.85-1.59,152.99-10.8l9.79-1.79c333.58-60.81,671.2-71.71,1006.15-32.69v-8.03c-335.07-39-672.83-28.09-1006.54,32.74Z"/>
        <path class="cls-6" d="M1087.34,1648.76c-3.78-1.69-8.23-3.41-12.6-3.41-5.73,0-10.1,2.95-13.38,9.03l-1.9,3.53,2.23,2.73c60.29,74.05,135.71,121.77,224.17,141.82,37.62,8.53,77.62,12.51,125.86,12.51,37.42,0,74.97-2.4,111.28-4.73,37.46-2.4,76.2-4.88,112.11-31.56l10.34-7.68-11.08-.06c-183.87-1.08-367.92-42.18-547.02-122.17ZM1522.85,1802.22c-36.28,2.32-73.79,4.73-111.14,4.73-48.07,0-87.91-3.96-125.37-12.45-86.59-19.64-160.54-65.9-219.88-137.54,2.19-2.42,4.92-3.6,8.28-3.6,3.94,0,8.1,1.62,11.65,3.21,175.46,78.37,355.65,119.47,535.8,122.25-32.04,19.1-66.19,21.29-99.34,23.41Z"/>
        <path class="cls-6" d="M1173.47,1728.08c46.18,43.72,97.8,67.78,149.28,69.56l1.82.06.28-3.45c.59-7.2-2.47-13.21-8.19-16.06l-149.31-74.59-.72,3.12c-1.71,7.43.98,15.81,6.84,21.35ZM1315.62,1785.95c1.26.63,3.02,1.87,4.12,3.54-49.84-2.6-99.71-26.28-144.42-68.61-1.71-1.62-3.85-4.48-4.67-7.36l144.97,72.42Z"/>
        <path class="cls-6" d="M1451.49,1582.49c126.78,28.03,255.14-17.08,379.26-60.7,20.05-7.05,40.45-14.21,60.92-21.1h-23.83c-12.7,4.39-25.34,8.82-37.84,13.22-123.82,43.52-251.87,88.52-378.03,60.62-60.16-13.3-119.95-43.35-177.78-72.41-.95-.48-1.9-.96-2.85-1.43h-16.53c6.13,3.06,12.24,6.13,18.33,9.19,57.97,29.13,117.9,59.25,178.36,72.62Z"/>
        <path class="cls-6" d="M1743.9,1500.69h-17.84c-103.9,45.69-211.96,45.78-316.02,0h-17.69c115.42,56.46,236.32,56.39,351.55,0Z"/>
        <path class="cls-6" d="M1656.13,1632.97c-12.59,3.71-25.21,7.56-37.86,11.41-103.47,31.53-210.47,64.13-313.69,25.73-28.09-10.45-56.05-26.3-83.1-41.63-25.27-14.32-51.39-29.13-77.65-39.57-51.8-20.59-104.54-24.81-163.17-27.89-99.42-5.22-199.16-7.82-299.08-7.82-227.31,0-455.4,13.53-681.58,40.39v8.04c325.56-38.68,655.02-49.69,980.55-32.6,58.42,3.07,110.97,7.28,162.44,27.73,26.09,10.37,52.13,25.13,77.31,39.41,27.14,15.38,55.2,31.29,83.49,41.81,103.94,38.66,211.31,5.95,315.14-25.69,12.64-3.85,25.25-7.69,37.84-11.41,278.51-82.13,560.91-99.39,841.26-51.69v-8.04c-280.56-47.69-563.17-30.39-841.89,51.81Z"/>
      </g>
    </g>
    <g>
      <rect class="cls-1" x="0" y="1877.34" width="2498.02" height="366.94"/>
      <g>
        <g>
          <path class="cls-5" d="M2405.81,2153.46c0,4.43,32.06,8.01,71.6,8.01,7.17,0,14.08-.12,20.61-.34v-15.35c-6.53-.22-13.44-.34-20.61-.34-39.54,0-71.6,3.59-71.6,8.01Z"/>
          <path class="cls-5" d="M2207,2071.98c0,3.69,75.63,6.68,168.92,6.68,48.03,0,91.34-.79,122.1-2.07v-9.23c-30.76-1.27-74.07-2.07-122.1-2.07-93.29,0-168.92,2.99-168.92,6.68Z"/>
          <path class="cls-5" d="M1965.1,2125.41c0,5.16,100.52,9.35,224.53,9.35s224.53-4.19,224.53-9.35-100.52-9.35-224.53-9.35-224.53,4.19-224.53,9.35Z"/>
          <path class="cls-5" d="M2115.25,1993.17c0,4.43,89.01,8.01,198.81,8.01,83.08,0,154.24-2.05,183.96-4.97v-6.09c-29.72-2.92-100.89-4.97-183.96-4.97-109.8,0-198.81,3.59-198.81,8.01Z"/>
          <ellipse class="cls-5" cx="1919.22" cy="2039.92" rx="272.49" ry="9.35"/>
          <path class="cls-5" d="M2304.32,1939.74c0,5.9,55.09,10.69,123.04,10.69,26.3,0,50.66-.72,70.66-1.94v-17.49c-20-1.22-44.35-1.94-70.66-1.94-67.95,0-123.04,4.78-123.04,10.69Z"/>
          <path class="cls-5" d="M2015.15,1947.75c135.9,0,246.08-7.77,246.08-17.37s-110.17-17.36-246.08-17.36-246.08,7.77-246.08,17.36,110.17,17.37,246.08,17.37Z"/>
          <path class="cls-5" d="M69.22,2153.46c0-4.34-30.78-7.87-69.22-8.01v16.02c38.44-.14,69.22-3.67,69.22-8.01Z"/>
          <path class="cls-5" d="M268.03,2071.98c0-3.69-75.63-6.68-168.92-6.68-37.04,0-71.27.47-99.11,1.27v10.81c27.84.8,62.07,1.27,99.11,1.27,93.29,0,168.92-2.99,168.92-6.68Z"/>
          <path class="cls-5" d="M285.41,2116.06c-124,0-224.53,4.19-224.53,9.35s100.52,9.35,224.53,9.35,224.53-4.19,224.53-9.35-100.52-9.35-224.53-9.35Z"/>
          <path class="cls-5" d="M359.78,1993.17c0-4.43-89.01-8.01-198.81-8.01-66.21,0-124.85,1.31-160.98,3.31v9.41c36.13,2.01,94.77,3.31,160.98,3.31,109.8,0,198.81-3.59,198.81-8.01Z"/>
          <ellipse class="cls-5" cx="555.81" cy="2039.92" rx="272.49" ry="9.35"/>
          <path class="cls-5" d="M170.71,1939.74c0-5.9-55.09-10.69-123.04-10.69-16.9,0-33.01.3-47.67.83v19.71c14.66.54,30.77.83,47.67.83,67.95,0,123.04-4.78,123.04-10.69Z"/>
          <path class="cls-5" d="M459.88,1947.75c135.9,0,246.08-7.77,246.08-17.37s-110.17-17.36-246.08-17.36-246.08,7.77-246.08,17.36,110.17,17.37,246.08,17.37Z"/>
        </g>
        <g>
          <path class="cls-5" d="M826.81,2164.92c-256.07,1.04-540.6,2.21-826.81,23.84v8.02c286.19-21.64,570.74-22.81,826.82-23.85,554.46-2.25,1116.39-1.48,1671.2,2.28v-8.01c-347.48-2.35-697.71-3.54-1047.2-3.54-208.53,0-416.81.42-624.01,1.26Z"/>
          <path class="cls-5" d="M1855.1,2109.79c-21.04,2.57-42.44,5.37-63.14,8.08-130.65,17.09-265.75,34.78-397.64,6.7-17.35-3.69-34.98-8.25-52.02-12.66-36.99-9.57-75.23-19.46-113.21-21.18-50.89-2.29-102.25,10.02-151.92,21.93-22.16,5.32-45.08,10.81-67.64,14.93-119.08,21.75-240.84,7.48-358.6-6.33-16.92-1.98-33.84-3.97-50.75-5.85-198.92-22.13-400.38-30.07-600.19-23.75v8.02c199.73-6.32,401.11,1.61,599.95,23.73,16.9,1.88,33.82,3.86,50.73,5.85,117.91,13.82,239.83,28.12,359.24,6.31,22.62-4.13,45.57-9.64,67.76-14.96,49.52-11.88,100.72-24.15,151.3-21.87,37.74,1.71,75.87,11.57,112.75,21.11,17.07,4.42,34.71,8.98,52.12,12.69,132.26,28.15,267.55,10.45,398.38-6.67,20.7-2.71,42.1-5.51,63.12-8.08,213.05-26.05,428.48-33.09,642.66-21.26v-8.06c-66.82-3.69-133.76-5.58-200.73-5.58-147.73,0-295.54,8.97-442.2,26.9Z"/>
          <path class="cls-5" d="M1729.55,1975.88c-20.03-6.57-40.23-15.61-59.76-24.36-33.13-14.82-67.38-30.15-101.95-33.99-54.82-6.09-109.73,16.7-162.81,38.73-54.92,22.8-111.7,46.37-168.07,37.6-34.3-5.33-68.9-22.67-102.36-39.44-39.97-20.03-80.95-40.57-121.83-40.57-14.72,0-29.44,2.66-44.09,8.97-31.72,13.66-60.81,43.75-88.94,72.85-20.48,21.19-41.66,43.1-63.68,58.48-60.53,42.28-128.65,36.12-188.75,30.69L0,2028.11v8.02l627.11,56.72c60.49,5.47,129.05,11.67,190.37-31.16,22.3-15.58,43.62-37.63,64.24-58.95,27.89-28.85,56.72-58.67,87.88-72.09,54.34-23.4,110.06,4.52,163.95,31.53,33.63,16.85,68.41,34.28,103.08,39.67,56.98,8.85,114.07-14.84,169.28-37.76,52.82-21.92,107.42-44.57,161.69-38.57,34.21,3.8,68.29,19.05,101.24,33.8,19.59,8.77,39.86,17.84,60.01,24.45,68.36,22.44,138.61,17.96,206.55,13.63l562.62-35.86v-8.02l-562.76,35.86c-67.73,4.32-137.76,8.78-205.71-13.52Z"/>
          <path class="cls-5" d="M1265.66,2033.07l.23-5.59c-37.87.91-75.61-9.04-111.93-29.53-11.82-6.66-23.86-14.62-35.5-22.31-31.08-20.53-63.22-41.76-95.72-41.76-6.18,0-12.3.77-18.19,2.3-25.35,6.57-49.55,28.34-70.9,47.56-38.09,34.27-81.26,73.11-118.93,123.94l-4.81,6.5,5.87.78c36.1,4.81,78.05,9.94,119.05,9.94,31.44,0,59.66-2.92,86.27-8.94,19.13-4.32,38.45-10.52,57.14-16.52,29.54-9.48,60.08-19.28,90.42-21.81,7.12-.59,14.82-.86,24.95-.86,4.02,0,8.04.04,12.06.08,4.03.04,8.05.08,12.08.08,26.22,0,54.07-1.38,80.93-17.85l1.77-1.09-.36-3.51c-.98-9.49-4.21-16.56-9.49-21.12-8.29.92-16.59.96-24.92-.3ZM1295.46,2052.61c-25.7,15.03-52.46,16.31-77.72,16.31-4.02,0-8.04-.04-12.06-.08-4.03-.04-8.06-.08-12.08-.08-10.19,0-17.94.27-25.13.86-30.59,2.55-61.26,12.39-90.92,21.91-18.63,5.98-37.9,12.16-56.93,16.46-26.45,5.98-54.51,8.88-85.79,8.88-38.64,0-78.17-4.58-112.82-9.14,36.19-47.28,77.12-84.1,113.41-116.75,22.11-19.89,44.97-40.46,69.69-46.87,5.71-1.48,11.64-2.23,17.63-2.23,31.8,0,63.61,21.01,94.36,41.33,11.69,7.72,23.77,15.7,35.69,22.42,35.23,19.86,71.73,29.93,108.48,29.93,2.98,0,5.97-.07,8.96-.2,9.56-.4,22.08,2.07,25.24,17.23Z"/>
          <path class="cls-5" d="M1130.75,2013.58c-31.5-12.26-63.84-18.47-96.11-18.47h0c-20.18,0-40.53,2.45-60.47,7.28-39.98,9.69-65.13,36.21-74.74,78.81l-.97,4.29,2.35,1.19c14.66,7.39,30.59,10.83,50.13,10.83,11.25,0,22.41-1.1,35.69-2.75,47.24-5.87,94.99-14.66,141.95-26.12,12.61-3.08,19.99-13.64,19.74-28.23-.23-12.97-6.46-22.5-17.56-26.82ZM1128.04,2060.69c-46.87,11.45-94.54,20.22-141.69,26.08-13.2,1.64-24.28,2.73-35.42,2.73-18.1,0-33.01-2.99-46.65-9.39,9.72-37.32,33.38-60.79,70.4-69.76,19.77-4.79,39.94-7.22,59.95-7.22,32,0,64.06,6.16,95.29,18.31,5.22,2.03,14.01,7.23,14.21,19.23.27,15.24-13.36,19.35-16.09,20.01Z"/>
          <path class="cls-5" d="M1069.66,2027.46c-3.93-5.93-9.03-6.5-13.91-6.58-1.21-.02-2.43-.03-3.64-.03h0c-32.84,0-65.74,6.99-97.79,20.79-1.18.51-3.65,1.57-4.73,5.73-.62,2.36-.64,5.22-.07,8.49,2.12,12.25,15.97,14.74,32.5,16.56,2.92.32,5.44.6,6.95.96,5.65,1.37,11.44,2.06,17.19,2.06,22.09,0,44.06-10.1,63.56-29.21l1.22-1.19-.53-16.47-.74-1.11ZM1006.15,2067.42c-5.58,0-11.19-.67-16.67-2-1.64-.4-4.11-.67-7.23-1.01-7.49-.82-27.38-3-28.78-11.08-.3-1.73-.17-2.31-.15-2.37.13-.51.78-1.01,1.91-1.5,32.92-14.17,66.77-21.1,100.49-20.57,3.98.06,7.79.43,10.64,3.88l.24,7.5c-18.6,17.77-39.47,27.15-60.44,27.15Z"/>
          <path class="cls-5" d="M1404.31,1999.5c-28.62,7.92-53.36,25.83-73.82,53.64l-2.15,2.92,1.97,3.35c10.33,17.57,24.53,18.74,38.27,19.87,2.24.18,4.47.37,6.67.62,18.36,2.15,36.61,11.21,54.27,19.97,5.42,2.69,11.03,5.47,16.56,8.02,42.5,19.55,88.74,29.05,141.36,29.05,29.63,0,62.01-3.04,99.01-9.29,29.64-5.01,59.71-11.57,88.78-17.91,49.41-10.78,100.5-21.93,150.98-25.77l1.79-.14.2-3.43c.32-5.69-.49-10.9-2.42-15.46-3.94-9.32-11.9-13.86-18.03-14.99-9.23-1.72-18.89-2.55-29.52-2.55-17.58,0-34.52,2.21-54.85,5.09l-6.69.95c-36.77,5.24-74.8,10.66-112.11,10.66-28.23,0-53.39-3.07-76.92-9.38-23.85-6.4-47.8-16.71-70.97-26.68-25.58-11.01-52.04-22.39-78.54-28.61-13.16-3.09-26.06-4.66-38.35-4.66h0c-6.26,0-12.35.44-18.31,1.23-5.31,2.93-10.57,6.35-15.76,10.33l-1.42-6.83ZM1439.8,2002.78c12.12,0,24.85,1.55,37.85,4.59,26.29,6.18,52.64,17.51,78.13,28.48,23.25,10,47.29,20.35,71.31,26.79,23.72,6.37,49.07,9.46,77.49,9.46,37.47,0,75.57-5.43,112.42-10.68l6.69-.95c20.24-2.87,37.1-5.07,54.54-5.07,10.49,0,20.01.82,29.11,2.51,5.05.94,12.06,4.66,15.19,12.07.81,1.92,1.3,3.94,1.48,6.12-49.97,3.99-100.44,15-149.26,25.65-29.05,6.34-59.08,12.89-88.67,17.89-36.87,6.23-69.14,9.26-98.64,9.26-52.29,0-98.21-9.43-140.39-28.83-5.5-2.53-11.09-5.3-16.49-7.99-17.85-8.86-36.3-18.02-55.06-20.21-2.22-.26-4.47-.44-6.74-.63-12.05-.99-24.48-2.01-33.57-14.62,27.46-35.75,62.64-53.86,104.63-53.86Z"/>
          <path class="cls-5" d="M1744.92,2002c-12.19-5.19-24.54-11.07-36.48-16.77-23.64-11.28-48.08-22.94-72.63-29.75-19.98-5.55-40.03-7.94-60.11-7.94-63.99,0-128.19,24.27-190.77,47.93-15.05,5.69-30.62,11.58-45.87,17-24.64,8.77-48.77,16.33-73.07,12.61l-.1,2.4c1.41-.03,2.82-.05,4.24-.11.65-.03,1.32-.04,1.99-.04,7.67,0,13.85,2.07,18.47,6.05,16.36-1.82,32.69-7.14,49.24-13.02,15.28-5.43,30.86-11.32,45.92-17.02,8.58-3.24,17.19-6.49,25.82-9.7,18.62-12.39,37.88-18.3,57.42-19.71,55.29-16.83,111.14-25.82,166.23-10.53,24.34,6.76,48.68,18.37,72.22,29.6,11.97,5.71,24.34,11.61,36.59,16.82,69.91,29.72,141.57,39.65,212.97,29.5l-.31-7.99c-71.01,10.09-142.25.22-211.77-29.33Z"/>
          <path class="cls-5" d="M1270.12,2027.37c-1.41.06-2.82.08-4.24.11l-.23,5.59c8.34,1.27,16.64,1.23,24.92.3-4.62-3.98-10.79-6.05-18.47-6.05-.67,0-1.34.02-1.99.04Z"/>
          <path class="cls-5" d="M1404.18,1998.89l.13.61c5.58-1.55,11.31-2.72,17.18-3.5,48.37-26.74,100.99-11.74,151.09,9.21,7.06,2.95,14.14,6.01,21.23,9.08,48.37,20.94,98.38,42.59,147.98,30.02l-.55-7.95c-48.86,12.38-98.51-9.11-146.52-29.89-7.1-3.07-14.19-6.14-21.27-9.1-31.17-13.03-63.32-23.78-94.91-23.78-3.2,0-6.39.11-9.57.34-19.23,5.85-38.39,12.65-57.42,19.71-2.47,1.64-4.93,3.37-7.38,5.25Z"/>
          <path class="cls-5" d="M1405.73,2006.33c5.2-3.99,10.45-7.4,15.76-10.33-5.87.78-11.6,1.95-17.18,3.5l1.42,6.83Z"/>
          <path class="cls-5" d="M1468.99,1973.93c-19.54,1.41-38.8,7.32-57.42,19.71,19.04-7.06,38.2-13.85,57.42-19.71Z"/>
          <path class="cls-5" d="M1410.21,2061.84c65.35,28.08,135.33,54.07,204.3,54.07,36.33,0,69.33-6.99,100.9-21.38l12.68-5.78-12.99-2.11c-74.37-12.1-149.01-34.08-221.85-65.35-16.72-7.18-34.46-14.18-51.39-14.18h0c-18.51,0-33.23,8.39-44.99,25.66l-.58.86-.18,1.37c-.55,4.24-.19,8.48,1.02,12.25,3.12,9.68,10.8,13.63,13.08,14.61ZM1441.86,2015.12h0c16.51,0,33.99,6.91,50.48,13.99,68.59,29.44,138.77,50.68,208.83,63.19-27.24,10.48-55.73,15.59-86.67,15.59-68.56,0-138.27-25.89-203.39-53.87-4.87-2.09-8.96-6.41-10.44-11-.5-1.56-.71-3.14-.63-4.81,10.91-15.53,24.59-23.08,41.81-23.08Z"/>
          <path class="cls-5" d="M1501.85,2073.6c7.58,3.32,14.74,6.46,19.23,10.13,13.77,11.26,30.07,13.2,44.45,5.26l1.22-.67.25-2.4c.73-7.13-1.44-15.08-5.27-19.32-3.18-3.51-6.8-4.26-9.99-4.92l-87.84-18.22,5.5,8.56c6.59,10.25,19.74,16.01,32.45,21.58ZM1551.29,2069.64c2.92.61,5.94,1.23,8.36,3.91,1.59,1.76,3.05,5.03,3.29,8.5-13.09,6.56-27.78,4.49-40.23-5.68-4.84-3.96-12.17-7.17-19.94-10.58-7.01-3.07-14.58-6.39-20.78-10.51l69.29,14.37Z"/>
        </g>
      </g>
    </g>
  </g>
</svg>